<svg xmlns="http://www.w3.org/2000/svg" viewBox="0 0 702 562.4"><rect x="317.04" y="183.21" width="67.92" height="67.92" transform="translate(256.37 -184.59) rotate(45)" style="fill:#3fc;stroke:#000;stroke-miterlimit:10;stroke-width:2px"/><rect x="274.61" y="1" width="152.77" height="67.92" style="fill:#495670;stroke:#000;stroke-miterlimit:10;stroke-width:2px"/><line x1="291.68" y1="34.96" x2="321.11" y2="34.96" style="fill:#3fc;stroke:#000;stroke-miterlimit:10;stroke-width:3px"/><line x1="380.89" y1="34.96" x2="410.32" y2="34.96" style="fill:#3fc;stroke:#000;stroke-miterlimit:10;stroke-width:3px"/><line x1="339.15" y1="34.96" x2="354.06" y2="34.96" style="fill:#3fc;stroke:#000;stroke-miterlimit:10;stroke-width:3px"/><rect x="274.61" y="493.48" width="152.77" height="67.92" style="fill:#495670;stroke:#000;stroke-miterlimit:10;stroke-width:2px"/><line x1="287.29" y1="527.44" x2="316.72" y2="527.44" style="fill:#3fc;stroke:#000;stroke-miterlimit:10;stroke-width:3px"/><line x1="376.49" y1="527.44" x2="405.93" y2="527.44" style="fill:#3fc;stroke:#000;stroke-miterlimit:10;stroke-width:3px"/><line x1="325.9" y1="527.44" x2="349.67" y2="527.44" style="fill:#3fc;stroke:#000;stroke-miterlimit:10;stroke-width:3px"/><line x1="356.8" y1="527.44" x2="371.72" y2="527.44" style="fill:#3fc;stroke:#000;stroke-miterlimit:10;stroke-width:3px"/><rect x="1" y="183.21" width="152.77" height="67.92" style="fill:#495670;stroke:#000;stroke-miterlimit:10;stroke-width:2px"/><line x1="18.07" y1="217.17" x2="47.5" y2="217.17" style="fill:#3fc;stroke:#000;stroke-miterlimit:10;stroke-width:3px"/><line x1="107.27" y1="217.17" x2="136.7" y2="217.17" style="fill:#3fc;stroke:#000;stroke-miterlimit:10;stroke-width:3px"/><line x1="65.53" y1="217.17" x2="80.45" y2="217.17" style="fill:#3fc;stroke:#000;stroke-miterlimit:10;stroke-width:3px"/><rect x="548.23" y="183.21" width="152.77" height="67.92" style="fill:#495670;stroke:#000;stroke-miterlimit:10;stroke-width:2px"/><line x1="593.21" y1="217.17" x2="677.34" y2="217.17" style="fill:#3fc;stroke:#000;stroke-miterlimit:10;stroke-width:3px"/><rect x="274.61" y="365.42" width="152.77" height="67.92" style="fill:#495670;stroke:#000;stroke-miterlimit:10;stroke-width:2px"/><line x1="287.29" y1="399.38" x2="316.72" y2="399.38" style="fill:#3fc;stroke:#000;stroke-miterlimit:10;stroke-width:3px"/><line x1="334.75" y1="399.38" x2="349.67" y2="399.38" style="fill:#3fc;stroke:#000;stroke-miterlimit:10;stroke-width:3px"/><line x1="153.77" y1="217.17" x2="302.97" y2="217.17" style="fill:#3fc;stroke:#000;stroke-miterlimit:10;stroke-width:2px"/><line x1="351" y1="169.14" x2="351" y2="68.92" style="fill:#3fc;stroke:#000;stroke-miterlimit:10;stroke-width:2px"/><line x1="399.03" y1="217.17" x2="548.23" y2="217.17" style="fill:#3fc;stroke:#000;stroke-miterlimit:10;stroke-width:2px"/><polyline points="427.39 399.38 635.28 399.38 635.28 251.13" style="fill:none;stroke:#000;stroke-miterlimit:10;stroke-width:2px"/><line x1="351" y1="433.34" x2="351" y2="493.48" style="fill:none;stroke:#000;stroke-miterlimit:10;stroke-width:2px"/><line x1="351" y1="265.2" x2="351" y2="365.42" style="fill:none;stroke:#000;stroke-miterlimit:10;stroke-width:2px"/></svg>