<svg xmlns="http://www.w3.org/2000/svg" viewBox="0 0 700 804.93"><rect width="538.53" height="804.93" rx="25.79" style="fill:#37474f"/><rect x="23.35" y="56.34" width="492.45" height="692.74" style="fill:#fff"/><rect x="210.67" y="28.51" width="117.2" height="8.36" rx="2.5" style="fill:#263238"/><circle cx="269.26" cy="776.28" r="15.16" style="fill:#263238"/><rect x="23.35" y="56.34" width="492.45" height="692.74" style="fill:#fff"/><rect x="23.35" y="56.34" width="492.45" height="692.74" style="fill:#fff"/><path d="M515.8,749.07c-.16,0-492.51.16-492.67.22S22.91,56.4,22.85,56.34v-.5h.52c.2-.12,492.53.3,492.73.22s-.42,692.85-.28,693Zm0,0-.28-692.73c1.76.7-492.55.32-492.15.5l.5-.5-.3,692.73c-1.3-.42,492.53,0,492.25,0Z" style="fill:#263238"/><rect x="23.35" y="733.75" width="492.45" height="15.32" style="fill:#112240"/><rect x="266.22" y="56.34" width="249.58" height="692.74" style="fill:#ffc727;isolation:isolate;opacity:0.100000001490116"/><rect x="58.36" y="102.21" width="422.41" height="49.6" style="fill:#3fc;stroke:#000;stroke-miterlimit:10;stroke-width:2px"/><rect x="58.36" y="373.58" width="82.39" height="5.58" style="fill:#455a64"/><rect x="58.36" y="636.3" width="82.39" height="5.58" style="fill:#455a64"/><rect x="58.36" y="532.69" width="82.39" height="5.58" style="fill:#455a64"/><rect x="82.95" y="397.9" width="165.89" height="7.7" style="fill:#ebebeb"/><rect x="82.95" y="397.9" width="119.94" height="7.7" style="fill:#3fc"/><rect x="82.95" y="417.81" width="165.89" height="7.7" style="fill:#ebebeb"/><rect x="82.95" y="417.81" width="152.13" height="7.7" style="fill:#3fc"/><rect x="82.95" y="437.74" width="165.89" height="7.7" style="fill:#ebebeb"/><rect x="82.95" y="437.74" width="129.28" height="7.7" style="fill:#3fc"/><rect x="82.95" y="457.66" width="165.89" height="7.7" style="fill:#ebebeb"/><rect x="82.95" y="457.66" width="142.56" height="7.7" style="fill:#3fc"/><rect x="82.95" y="477.59" width="165.89" height="7.7" style="fill:#ebebeb"/><rect x="82.95" y="477.59" width="156.01" height="7.7" style="fill:#3fc"/><rect x="58.36" y="395.52" width="12.44" height="12.44" style="fill:#3fc"/><rect x="58.36" y="415.45" width="12.44" height="12.44" style="fill:#455a64"/><rect x="58.36" y="435.38" width="12.44" height="12.44" style="fill:#c7c7c7"/><rect x="58.36" y="455.3" width="12.44" height="12.44" style="fill:#3fc"/><rect x="58.36" y="475.23" width="12.44" height="12.44" style="fill:#263238"/><rect x="293.61" y="373.58" width="105.71" height="5.58" style="fill:#455a64"/><rect x="293.61" y="395.22" width="40.17" height="5.58" style="fill:#c7c7c7"/><rect x="293.61" y="442.66" width="40.17" height="5.58" style="fill:#c7c7c7"/><rect x="293.61" y="490.11" width="40.17" height="5.58" style="fill:#c7c7c7"/><rect x="293.61" y="537.55" width="40.17" height="5.58" style="fill:#c7c7c7"/><rect x="293.61" y="587.22" width="40.17" height="5.58" style="fill:#c7c7c7"/><path d="M374.76,398c34.11-1,71.64-1,105.75,0C446.4,399,408.87,399,374.76,398Z" style="fill:#a6a6a6"/><path d="M374.76,405.63c34.11-1,71.64-1,105.75,0C446.4,406.61,408.87,406.61,374.76,405.63Z" style="fill:#a6a6a6"/><path d="M374.76,413.23c34.11-1,71.64-1,105.75,0C446.4,414.23,408.87,414.21,374.76,413.23Z" style="fill:#a6a6a6"/><path d="M374.76,420.81a324.14,324.14,0,0,1,44.73,0,326.43,326.43,0,0,1-44.67,0Z" style="fill:#a6a6a6"/><path d="M374.76,445.58c34.11-1,71.64-1,105.75,0C446.4,446.58,408.87,446.56,374.76,445.58Z" style="fill:#a6a6a6"/><path d="M374.76,453.2c34.11-1,71.64-1,105.75,0C446.4,454.18,408.87,454.18,374.76,453.2Z" style="fill:#a6a6a6"/><path d="M374.76,460.82c34.11-1,71.64-1,105.75,0C446.4,461.82,408.87,461.82,374.76,460.82Z" style="fill:#a6a6a6"/><path d="M374.76,468.43a323.27,323.27,0,0,1,44.67,0A326.43,326.43,0,0,1,374.76,468.43Z" style="fill:#a6a6a6"/><path d="M374.76,493.15c34.11-1,71.64-1,105.75,0C446.4,494.15,408.87,494.15,374.76,493.15Z" style="fill:#a6a6a6"/><path d="M374.76,500.84c34.11-1,71.64-1,105.75,0C446.4,501.84,408.87,501.82,374.76,500.84Z" style="fill:#a6a6a6"/><path d="M374.76,508.4c34.11-1,71.64-1,105.75,0C446.4,509.38,408.87,509.38,374.76,508.4Z" style="fill:#a6a6a6"/><path d="M374.76,516a326.43,326.43,0,0,1,44.67,0A323.27,323.27,0,0,1,374.76,516Z" style="fill:#a6a6a6"/><path d="M374.76,588.32c34.11-1,71.64-1,105.75,0C446.4,589.3,408.87,589.3,374.76,588.32Z" style="fill:#a6a6a6"/><path d="M374.76,595.93c34.11-1,71.64-1,105.75,0C446.4,596.93,408.87,596.93,374.76,595.93Z" style="fill:#a6a6a6"/><path d="M374.76,603.55c34.11-1,71.64-1,105.75,0C446.4,604.55,408.87,604.53,374.76,603.55Z" style="fill:#a6a6a6"/><path d="M374.76,611.17a323.27,323.27,0,0,1,44.67,0A326.43,326.43,0,0,1,374.76,611.17Z" style="fill:#a6a6a6"/><path d="M374.76,540.85c34.11-1,71.64-1,105.75,0C446.4,541.83,408.87,541.83,374.76,540.85Z" style="fill:#a6a6a6"/><path d="M374.76,548.35c34.11-1,71.64-1,105.75,0C446.4,549.35,408.87,549.33,374.76,548.35Z" style="fill:#a6a6a6"/><path d="M374.76,556c34.11-1,71.64-1,105.75,0C446.4,557,408.87,557,374.76,556Z" style="fill:#a6a6a6"/><path d="M374.76,563.58a323.27,323.27,0,0,1,44.67,0A323.27,323.27,0,0,1,374.76,563.58Z" style="fill:#a6a6a6"/><polygon points="353.59 396.1 353.89 431.85 354.07 467.63 354.23 539.15 354.09 543.55 353.89 579.3 353.59 615.07 353.27 579.3 353.09 543.55 352.93 539.15 353.09 467.63 353.27 431.85 353.59 396.1" style="fill:none;stroke:#112240;stroke-miterlimit:10"/><path d="M356.05,398a2.48,2.48,0,1,1-2.48-2.48h0A2.48,2.48,0,0,1,356.05,398Z" style="fill:#3fc"/><path d="M356.05,445.58a2.48,2.48,0,1,1-2.48-2.48h0a2.46,2.46,0,0,1,2.48,2.44Z" style="fill:#3fc"/><path d="M356.05,493.15a2.48,2.48,0,1,1-2.5-2.46h0a2.46,2.46,0,0,1,2.48,2.44Z" style="fill:#3fc"/><path d="M356.05,540.85a2.48,2.48,0,1,1-2.48-2.48h0a2.46,2.46,0,0,1,2.48,2.44Z" style="fill:#3fc"/><path d="M356.05,588.32a2.48,2.48,0,1,1-2.48-2.48h0A2.48,2.48,0,0,1,356.05,588.32Z" style="fill:#3fc"/><path d="M95.05,575.66a18.35,18.35,0,1,1-2.42-9.1A18.35,18.35,0,0,1,95.05,575.66Z" style="fill:#455a64"/><path d="M92.63,566.56l-16,9.1V557.31A18.32,18.32,0,0,1,92.63,566.56Z" style="fill:#3fc"/><path d="M89.39,575.66A12.69,12.69,0,1,1,76.7,563h0A12.68,12.68,0,0,1,89.39,575.66Z" style="fill:#fff"/><rect x="71.42" y="572.84" width="10.56" height="1.5" style="fill:#263238"/><rect x="68.82" y="577" width="15.8" height="1.5" style="fill:#a6a6a6"/><path d="M146.39,575.66a18.76,18.76,0,0,1-.2,2.7,18.33,18.33,0,1,1,.2-2.7Z" style="fill:#455a64"/><path d="M146.39,575.66a18.76,18.76,0,0,1-.2,2.7L128,575.66V557.31a18.36,18.36,0,0,1,18.35,18.35Z" style="fill:#3fc"/><path d="M140.72,575.66A12.68,12.68,0,1,1,128,563h0A12.68,12.68,0,0,1,140.72,575.66Z" style="fill:#fff"/><rect x="122.76" y="572.84" width="10.56" height="1.5" style="fill:#263238"/><rect x="120.14" y="577" width="15.78" height="1.5" style="fill:#a6a6a6"/><path d="M198.08,575.66a18.31,18.31,0,0,1-11.78,17.12,17.75,17.75,0,0,1-6.56,1.22,18.35,18.35,0,1,1,16-27.44A18,18,0,0,1,198.08,575.66Z" style="fill:#455a64"/><path d="M198.08,575.66a18.31,18.31,0,0,1-11.78,17.12l-6.56-17.12V557.31a18.32,18.32,0,0,1,16,9.25A18,18,0,0,1,198.08,575.66Z" style="fill:#3fc"/><path d="M192.42,575.66A12.71,12.71,0,1,1,179.7,563h0A12.68,12.68,0,0,1,192.42,575.66Z" style="fill:#fff"/><rect x="174.45" y="572.84" width="10.56" height="1.5" style="fill:#263238"/><rect x="171.83" y="577" width="15.78" height="1.5" style="fill:#a6a6a6"/><path d="M249.44,575.66A18.3,18.3,0,0,1,231.17,594h-.08a18.35,18.35,0,1,1,18.35-18.34Z" style="fill:#455a64"/><path d="M249.44,575.66A18.3,18.3,0,0,1,231.17,594h-.08a18.16,18.16,0,0,1-11.9-4.38l11.9-14V557.27a18.36,18.36,0,0,1,18.35,18.35Z" style="fill:#3fc"/><circle cx="231.13" cy="575.66" r="12.68" style="fill:#fff"/><rect x="225.85" y="572.84" width="10.56" height="1.5" style="fill:#263238"/><rect x="223.23" y="577" width="15.78" height="1.5" style="fill:#a6a6a6"/><path d="M72.2,677.65a2,2,0,0,1-1,.48l-.48.1h-.86l-.86-.14a8.66,8.66,0,0,1-3.1-1.38,19.83,19.83,0,0,1-5.56-5.58A8.6,8.6,0,0,1,59,668.07a1.9,1.9,0,0,0-.14-.88v-.84a4.06,4.06,0,0,1,.2-.78,6,6,0,0,1,.32-.68l.14.12L63,668.53v.22a1.72,1.72,0,0,0,.38,1.7,29.84,29.84,0,0,0,3.18,3.18,1.72,1.72,0,0,0,1.7.38h.2l3.58,3.56S72.18,677.61,72.2,677.65Z" style="fill:#3fc"/><path d="M74.26,675.59,73,676.83h0l-3.6-3.6.26-.26,1.06-1a.55.55,0,0,1,.78-.14.47.47,0,0,1,.14.14l2.68,2.68a.56.56,0,0,1,.16.78A.48.48,0,0,1,74.26,675.59Z" style="fill:#3fc"/><path d="M65.12,666.39l-1.38,1.32-3.56-3.56h0l1.26-1.26a.56.56,0,0,1,.79-.1l.09.1L65,665.61a.53.53,0,0,1,.1.75Z" style="fill:#3fc"/><path d="M73.78,695.9l-.38.36-6,5.74a.92.92,0,0,1-1.3.08L66,702l-6.18-5.84-.24-.22a.88.88,0,0,1,.54-.16H73A1.34,1.34,0,0,1,73.78,695.9Z" style="fill:#3fc"/><path d="M73.76,706.56a4.51,4.51,0,0,1-.52,0h-13a1.37,1.37,0,0,1-.66-.16l5-4.74,1,.9.4.38a1.09,1.09,0,0,0,1.53,0h0l1.34-1.28c1.64,1.58,3.3,3.14,5,4.7Z" style="fill:#3fc"/><path d="M63.94,701.22c-1.62,1.56-3.26,3.1-4.86,4.68v-9a1.31,1.31,0,0,1,0-.28Z" style="fill:#3fc"/><path d="M74.28,705.84c-.6-.58-1.2-1.16-1.82-1.72l-2.94-2.8H69.4c1.62-1.58,3.26-3.12,4.84-4.68C74.32,696.72,74.36,705.6,74.28,705.84Z" style="fill:#3fc"/><path d="M314,666.45a10.91,10.91,0,0,0-.76,3.48h-3.1v-.24a7.22,7.22,0,0,1,.2-1.22,8.44,8.44,0,0,1,.68-1.9h2.86Z" style="fill:#3fc"/><path d="M313.92,674.23h-2.84a8.66,8.66,0,0,1-.7-2.16,5.71,5.71,0,0,1-.14-1.08v-.1h3v.74a11.19,11.19,0,0,0,.18,1.16,10.1,10.1,0,0,0,.4,1.4Z" style="fill:#3fc"/><path d="M325.84,675.13h0a11.49,11.49,0,0,1-.8,1,8,8,0,0,1-1.18,1.08,8,8,0,0,1-2.76,1.38,6.92,6.92,0,0,1-1.18.26h-.18a9.38,9.38,0,0,0,2.24-2.16,12.28,12.28,0,0,0,.92-1.52h2.9Z" style="fill:#3fc"/><path d="M323,669.93h-4v-3.48h3.12a9.27,9.27,0,0,1,.62,2,6.78,6.78,0,0,1,.16,1.1A1.64,1.64,0,0,1,323,669.93Z" style="fill:#3fc"/><path d="M323,670.89v.84a1.54,1.54,0,0,1-.14.78,9.27,9.27,0,0,1-.52,1.7h-3.2v-3.32Z" style="fill:#3fc"/><path d="M318.12,666.47V670h-3.88a1.13,1.13,0,0,1,0-.26v-.58a4.27,4.27,0,0,1,.16-.88,9.35,9.35,0,0,1,.56-1.72h3Z" style="fill:#3fc"/><path d="M318.14,670.89v3.32H315a9.17,9.17,0,0,1-.54-1.76,7.62,7.62,0,0,0-.14-.94,3.16,3.16,0,0,1,0-.62h3.8Z" style="fill:#3fc"/><path d="M327.22,670H324a11.08,11.08,0,0,0-.76-3.5h3a8.38,8.38,0,0,1,.74,2.18,6.27,6.27,0,0,1,.16,1.22Z" style="fill:#3fc"/><path d="M327.24,670.89a.81.81,0,0,0,0,.22,2.59,2.59,0,0,1-.1.88,8.7,8.7,0,0,1-.6,2c-.05.1-.1.2-.14.3h-3a.39.39,0,0,1,.1-.32,8.51,8.51,0,0,0,.4-1.58,7.76,7.76,0,0,0,.14-1.18,1.31,1.31,0,0,0,0-.28h3.24Z" style="fill:#3fc"/><path d="M325.76,665.55h-2.9a8.82,8.82,0,0,0-1.42-2.1,7.28,7.28,0,0,0-1.08-1l-.6-.44h0a8.34,8.34,0,0,1,2.88.86A8.24,8.24,0,0,1,325.76,665.55Z" style="fill:#3fc"/><path d="M317.58,678.89h0a7.42,7.42,0,0,1-.94-.18A7.86,7.86,0,0,1,313.3,677a8.77,8.77,0,0,1-1-1,7.74,7.74,0,0,1-.62-.88h2.7a9.86,9.86,0,0,0,2.12,2.84,7.48,7.48,0,0,0,1.12.9Z" style="fill:#3fc"/><path d="M317.46,662l-.4.3a8.55,8.55,0,0,0-1.28,1.2,8.22,8.22,0,0,0-1.36,2v.14h-2.8A8.44,8.44,0,0,1,317.5,662h0Z" style="fill:#3fc"/><path d="M321.82,675.13a9.55,9.55,0,0,1-1.32,1.78,7.54,7.54,0,0,1-1.5,1.26v-3Z" style="fill:#3fc"/><path d="M318.12,675.13v3a8.93,8.93,0,0,1-2.7-3Z" style="fill:#3fc"/><path d="M321.74,665.55H319v-2.86a7.13,7.13,0,0,1,1.52,1.28A9.26,9.26,0,0,1,321.74,665.55Z" style="fill:#3fc"/><path d="M318.12,662.89v2.78h-2.66A8.32,8.32,0,0,1,318.12,662.89Z" style="fill:#3fc"/><path d="M325.3,696a7.29,7.29,0,0,0-8.46-3.88,6.79,6.79,0,0,0-5.28,7.22,9.05,9.05,0,0,0,1,3.16,24.09,24.09,0,0,0,4.1,6c.64.74,1.34,1.44,2,2.16l.24-.2c.88-.94,1.8-1.86,2.64-2.86a20.56,20.56,0,0,0,3.78-6A6.79,6.79,0,0,0,325.3,696Zm-2.18,2.64a4.46,4.46,0,0,1-4.63,4.28h0a4.41,4.41,0,1,1,.46-8.8h0a4.43,4.43,0,0,1,4.2,4.52Z" style="fill:#3fc"/><path d="M90.29,665.23c41.75-1,88.63-1,130.4,0-41.77,1-88.65,1-130.4,0Z" style="fill:#a6a6a6"/><path d="M90.29,674.63q32.56-1.51,65.2,0Q122.89,676.13,90.29,674.63Z" style="fill:#a6a6a6"/><path d="M90.29,696.5c41.75-1,88.63-1,130.4,0-41.77,1-88.65,1-130.4,0Z" style="fill:#a6a6a6"/><path d="M90.29,705.9q32.56-1.51,65.2,0Q122.89,707.4,90.29,705.9Z" style="fill:#a6a6a6"/><path d="M350.37,665.23c41.75-1,88.65-1,130.4,0C439,666.21,392.12,666.21,350.37,665.23Z" style="fill:#a6a6a6"/><path d="M350.37,674.63q32.56-1.51,65.2,0Q383,676.13,350.37,674.63Z" style="fill:#a6a6a6"/><path d="M350.37,696.5c41.75-1,88.65-1,130.4,0C439,697.48,392.12,697.48,350.37,696.5Z" style="fill:#a6a6a6"/><path d="M350.37,705.9q32.56-1.51,65.2,0Q383,707.4,350.37,705.9Z" style="fill:#a6a6a6"/><path d="M298.57,180.3c52-1,110.38-1,162.39,0C409,181.28,350.59,181.28,298.57,180.3Z" style="fill:#a6a6a6"/><path d="M298.57,196.24c52-1,110.38-1,162.39,0C409,197.22,350.59,197.22,298.57,196.24Z" style="fill:#a6a6a6"/><path d="M298.57,212.19c52-1,110.38-1,162.39,0C409,213.17,350.59,213.17,298.57,212.19Z" style="fill:#a6a6a6"/><path d="M298.57,262.5c52-1,110.38-1,162.39,0C409,263.48,350.59,263.48,298.57,262.5Z" style="fill:#a6a6a6"/><path d="M298.57,278.45c39.16-1,82.23-1,121.36,0C380.8,279.43,337.73,279.43,298.57,278.45Z" style="fill:#a6a6a6"/><path d="M298.57,228.13c22.85-1,45.76-1,68.6,0C344.33,229.13,321.42,229.13,298.57,228.13Z" style="fill:#a6a6a6"/><path d="M275.11,134.1V117.78a1.5,1.5,0,0,1,1.48-1.52h0a1.52,1.52,0,0,1,1.54,1.5v6.64h7.15v-6.62a1.49,1.49,0,0,1,1.45-1.52h.05a1.52,1.52,0,0,1,1.54,1.5V134.1a1.5,1.5,0,0,1-1.5,1.51h0a1.49,1.49,0,0,1-1.5-1.47v-6.58h-7.15v6.62a1.5,1.5,0,0,1-1.5,1.5h0a1.49,1.49,0,0,1-1.53-1.45A.62.62,0,0,1,275.11,134.1Z" style="fill:#020c1b"/><path d="M293.39,128.72a6.81,6.81,0,0,1,6.71-6.9h0a6.61,6.61,0,0,1,6.66,6.41v.12a.57.57,0,0,1,0,.26,1.31,1.31,0,0,1-1.44,1.1h-8.76a3.53,3.53,0,0,0,.95,1.82,4.16,4.16,0,0,0,2.63,1.25,4.57,4.57,0,0,0,2.88-.69,1.57,1.57,0,0,1,2.07,0,1.28,1.28,0,0,1,0,1.8h0a7,7,0,0,1-4.95,1.82,6.82,6.82,0,0,1-6.75-6.89Zm3-1.35h7.8a4.48,4.48,0,0,0-4.08-2.92A3.84,3.84,0,0,0,296.38,127.37Z" style="fill:#020c1b"/><path d="M316.72,116.32a1.7,1.7,0,0,1,1.7,1.68v18a1.68,1.68,0,1,1-3.36,0V118A1.68,1.68,0,0,1,316.72,116.32Z" style="fill:#020c1b"/><path d="M324.3,116.32A1.7,1.7,0,0,1,326,118v18a1.7,1.7,0,0,1-3.38,0V118A1.7,1.7,0,0,1,324.3,116.32Z" style="fill:#020c1b"/><path d="M331.46,135.38a7.54,7.54,0,0,1-2-5.34,7.8,7.8,0,0,1,2-5.32,7,7,0,0,1,5.22-2.32,6.71,6.71,0,0,1,5.09,2.32,7.64,7.64,0,0,1,2.12,5.32,7.4,7.4,0,0,1-2.12,5.34,6.68,6.68,0,0,1-5.09,2.32A7,7,0,0,1,331.46,135.38Zm1.2-5.34a5,5,0,0,0,1.1,3.22,4.16,4.16,0,0,0,2.92,1.12,4,4,0,0,0,2.81-1.12,4.75,4.75,0,0,0,1.18-3.22,4.58,4.58,0,0,0-1.18-3.16,4.26,4.26,0,0,0-2.81-1.16,4.36,4.36,0,0,0-2.92,1.16,4.82,4.82,0,0,0-1.18,3.16Z" style="fill:#020c1b"/><path d="M349,130.28V118a1.7,1.7,0,0,1,1.68-1.68,1.66,1.66,0,0,1,1.64,1.68h0v12.28a1.64,1.64,0,0,1-1.6,1.68h0A1.68,1.68,0,0,1,349,130.28Zm1.68,7.32A1.66,1.66,0,0,1,349,136v-.64a1.68,1.68,0,0,1,1.68-1.66,1.66,1.66,0,0,1,1.64,1.66v.62a1.62,1.62,0,0,1-1.58,1.66Z" style="fill:#020c1b"/><rect x="366.87" y="302.57" width="17.77" height="17.77" style="fill:#3fc"/><path d="M374.1,313.34h-2.38v-2.72h2.34v-2.7a3,3,0,0,1,2.66-2.89,21.17,21.17,0,0,1,3,0v2.49h-1.08a7.69,7.69,0,0,0-1,0,.88.88,0,0,0-.76.88v2.14h2.72c-.12.9-.22,1.74-.34,2.56,0,0-.22.18-.34.18h-2v7H374Z" style="fill:#fff"/><rect x="298.57" y="302.47" width="17.77" height="17.77" style="fill:#3fc"/><path d="M314,307.74a2.74,2.74,0,0,0-2.53-2.94h-7.68a2.75,2.75,0,0,0-2.86,2.62v7.49a2.81,2.81,0,0,0,2.59,3c.12,0,.24,0,.35,0h7.23a2.78,2.78,0,0,0,2.92-2.63V315ZM312.82,315a1.6,1.6,0,0,1-1.38,1.76h-7.61a1.59,1.59,0,0,1-1.74-1.4,1.93,1.93,0,0,1,0-.34v-7.3a1.6,1.6,0,0,1,1.43-1.76h7.56a1.58,1.58,0,0,1,1.74,1.4,1.93,1.93,0,0,1,0,.34v3.66c0,1.22,0,2.42,0,3.64Z" style="fill:#fff"/><path d="M307.46,307.92a3.4,3.4,0,1,0,3.38,3.42A3.43,3.43,0,0,0,307.46,307.92Zm0,5.68a2.33,2.33,0,0,1-2.25-2.24,2.29,2.29,0,1,1,2.32,2.24Z" style="fill:#fff"/><path d="M311.9,307.84a.78.78,0,0,1-1.56-.14.74.74,0,0,1,.75-.73h.07C311.66,307.06,311.94,307.32,311.9,307.84Z" style="fill:#fff"/><rect x="332.46" y="302.57" width="17.77" height="17.77" style="fill:#3fc"/><path d="M334.72,318c.28-1,.54-2,.82-2.92a1.11,1.11,0,0,0,0-.84,6.57,6.57,0,1,1,12.51-2.7,6.65,6.65,0,0,1-6.22,6.32,7.29,7.29,0,0,1-3.26-.62.94.94,0,0,0-.62,0Zm1.6-1.54c.64-.18,1.2-.34,1.77-.46a1.06,1.06,0,0,1,.56,0,6.16,6.16,0,0,0,2.66.7,5.47,5.47,0,0,0,5.54-5.38,6.63,6.63,0,0,0-.08-1,5.12,5.12,0,0,0-4-4.3,5.48,5.48,0,0,0-6,8,1,1,0,0,1,0,.64C336.64,315.38,336.48,315.9,336.32,316.5Z" style="fill:#fff"/><path d="M338.49,308.78c.46-.6,1.06-.5,1.36.18.12.26.16.34.28.64a.83.83,0,0,1-.18,1c-.24.2-.22.38,0,.62a4.73,4.73,0,0,0,2,1.7.45.45,0,0,0,.6-.14c.58-.7.58-.68,1.4-.3l.28.14a.76.76,0,0,1,.5.95.79.79,0,0,1-.28.39,1.8,1.8,0,0,1-1.84.46,6.73,6.73,0,0,1-4-3,2.49,2.49,0,0,1-.5-1.48A2.09,2.09,0,0,1,338.49,308.78Z" style="fill:#fff"/><rect x="73.18" y="120.24" width="175.55" height="226.83" style="fill:#dbdbdb"/><path d="M184.3,201.46c3.46,8.85,8.4,16.91,11.16,26a59.76,59.76,0,0,1,2.32,26.13c-4.92,32.11-46.71,51.37-76,41.39-14-4.76-26.27-16.16-30-30.77-4.56-18,5-35.13,10.8-51.47a83.61,83.61,0,0,0,4.7-28.51c0-8.51-.52-17.15,1.22-25.53,1.22-6,5.31-23.39,27.35-30.33,15.83-5,31.83,3.64,39.21,18.69C183.58,164.59,177.42,183.92,184.3,201.46Z" style="fill:#263238"/><path d="M108.91,204.08c-6.84,14.65-15.82,29.61-18.44,45.76-2.18,13.4,1.42,28,13.08,35.87,0,0,.22,0,.12-.16-12.24-9.48-13.76-25.89-10.34-40,3.52-14.47,12-27,16.26-41.18A.37.37,0,0,0,108.91,204.08Z" style="fill:#263238"/><path d="M105.81,203.22c-5.18,19.21,7.27-1.16,6.25,19.27,0,.24-.14-6.65-.12-7,1.32-20.41-8.85,7.57-5.75-12.32C106.23,203,105.87,203,105.81,203.22Z" style="fill:#263238"/><path d="M185.42,201.14a66.33,66.33,0,0,1-6-22.56.36.36,0,0,0-.72,0c-1.87,28.18,30.45,49.33,21.84,78.5,0,.2.24.34.32.12,4.12-12,.92-24-4.48-35.15C192.92,215,188.74,208.26,185.42,201.14Z" style="fill:#263238"/><path d="M178.88,174.37c0-.54-.86-.38-.82.14a63.31,63.31,0,0,0,10,29.65c2.82,4.38,6.26,8.33,9,12.77a170.17,170.17,0,0,1,7.76,15.24c0,.12.24,0,.2-.1-3.26-9.72-8.34-17.44-14.18-25.71A69.49,69.49,0,0,1,178.88,174.37Z" style="fill:#263238"/><path d="M176,232.43c32,30.43,73.13,95.25,66.29,108.9-7.63,15.16-52.2-27.49-52.12-30,0-2-16.41-41.62-28.87-70.45S168.11,224.91,176,232.43Z" style="fill:#eb9481"/><path d="M189.92,311.32c-1.46-4.24-23.83-56.52-30.27-73.07s-1.14-21.9,16.22-7.1,56,64.8,65.28,91.73c9,25.91-4.5,26.35-22.68,14.84C203.58,328.32,189.92,311.32,189.92,311.32Z" style="fill:#233554"/><path d="M133,216.89c.58,2,10.94,14.62,20.17,13.7,3-.32,2-16.78,2-16.78l.22-1.24,2.9-17.25-20.71-11.78-3-1.54s-.48,4.76-1,10.72v.84l-.12,1c0,.9-.18,1.8-.24,2.7s-.12,1.36-.16,2a16.51,16.51,0,0,1-.14,2.16A113.07,113.07,0,0,0,133,216.89Z" style="fill:#eb9481"/><path d="M133.64,192.74a35.08,35.08,0,0,0,21.81,19.85l2.9-17.25-20.71-11.78-3-1.54S134.18,186.74,133.64,192.74Z" style="fill:#263238"/><path d="M180,165c6.24,30-11.07,37.19-17.55,38.51-5.88,1.22-26,4.6-35.39-24.64s2.7-41.66,16-45.14S173.71,134.88,180,165Z" style="fill:#eb9481"/><path d="M169.81,159.35a18.74,18.74,0,0,1-2.12,0,3.36,3.36,0,0,1-2.14-.5,1.11,1.11,0,0,1-.22-1.32,2.71,2.71,0,0,1,2.52-1.06,4,4,0,0,1,2.7,1,1.13,1.13,0,0,1-.08,1.61A1.08,1.08,0,0,1,169.81,159.35Z" style="fill:#263238"/><path d="M149.77,163.75c.7-.22,1.3-.52,2-.78a3.58,3.58,0,0,0,1.86-1.18,1.1,1.1,0,0,0-.24-1.32,2.68,2.68,0,0,0-2.72-.18,3.93,3.93,0,0,0-2.24,1.8,1.18,1.18,0,0,0,.55,1.58A1.13,1.13,0,0,0,149.77,163.75Z" style="fill:#263238"/><path d="M155.09,170.25s-.14.12-.12.2c.46,2,.64,4.46-1.08,5.5v.12C156.13,175.31,155.85,172.11,155.09,170.25Z" style="fill:#263238"/><path d="M152.85,168.45c-3.36.4-2.34,7.06.76,6.7S155.65,168.13,152.85,168.45Z" style="fill:#263238"/><path d="M151.59,169c-.52.46-1,1.22-1.68,1.4s-1.52-.4-2.16-1h0c.18,1.28.86,2.52,2.26,2.5s2-1.28,2.12-2.62C152.07,169.15,151.81,168.83,151.59,169Z" style="fill:#263238"/><path d="M167.09,167.57s.18,0,.2.16c.22,2,.84,4.42,2.82,4.84v.12C167.77,172.73,167,169.59,167.09,167.57Z" style="fill:#263238"/><path d="M168.63,165.15c3.3-.74,4.52,5.9,1.48,6.58S165.87,165.77,168.63,165.15Z" style="fill:#263238"/><path d="M170.09,165.33c.6.26,1.24.8,1.86.72s1.14-.9,1.48-1.68h.12c.26,1.26.1,2.66-1.08,3.12s-2-.5-2.62-1.72C169.75,165.61,169.85,165.23,170.09,165.33Z" style="fill:#263238"/><path d="M158.59,186c.52.46,1.06,1.1,1.82,1.12a6,6,0,0,0,2.22-.66h0a2.89,2.89,0,0,1-2.58,1.3,2.25,2.25,0,0,1-1.76-1.74C158.35,186,158.51,185.9,158.59,186Z" style="fill:#263238"/><path d="M166.35,177.42s.8,3,1,4.5c0,.14-.32.24-.82.34h0a7,7,0,0,1-7.06-1.78c-.12-.12,0-.3.2-.22a10.57,10.57,0,0,0,6.56,1c0-.4-1.56-5.17-1.32-5.21a12.51,12.51,0,0,1,3.4.34c-1.48-6.4-4-12.5-5.36-18.88a.2.2,0,0,1,.18-.22.18.18,0,0,1,.18.08,104.45,104.45,0,0,1,6.66,20C170.11,178.32,167,177.6,166.35,177.42Z" style="fill:#263238"/><path d="M127.94,177.38c6.46-.91,4.86-15.75,4.86-15.75s10.66-3.44,14.25-11.44c0,0-2.2,6.82-6.15,10-.68.54,21.25-4.56,21.17-21.83,0,0,5.4,16.37,16,18.51.5,0-3.45-15.11-7.17-18.27a36.3,36.3,0,0,0-31.13-7.7c-13.38,3.74-20.46,19.21-20.74,25.21C118.46,168,124.88,177.82,127.94,177.38Z" style="fill:#263238"/><path d="M141.64,160.49c12-2,20.69-11,20-23.55a.28.28,0,0,1,.54,0c3.26,12.35-9.14,23.29-20.73,23.85C141.28,160.73,141.4,160.53,141.64,160.49Z" style="fill:#263238"/><path d="M127.88,176.73c6.14-4.2,6.32-10.92,6-17.68a.18.18,0,0,1,.36,0c.94,6.56.78,14.76-6,18.27a.35.35,0,0,1-.36-.59Z" style="fill:#263238"/><path d="M162,135.8c2.36,6.74,4.16,18.41,13.26,19a.19.19,0,0,1,.13.25.21.21,0,0,1-.13.13c-8.78.18-13.4-12.09-13.38-19.39Z" style="fill:#263238"/><path d="M132.2,177.28s-8-8.47-12-5.45,3.14,16,8.46,17.09a5.19,5.19,0,0,0,6.4-3.57l.06-.23Z" style="fill:#eb9481"/><path d="M122.32,175.49v.14c3.76.9,6.12,3.89,8,7.11a2.85,2.85,0,0,0-4-.46,2.05,2.05,0,0,0-.34.32.12.12,0,0,0,0,.16.11.11,0,0,0,.08,0,3.15,3.15,0,0,1,3.64.58,14.62,14.62,0,0,1,2.1,2.54c.2.3.76,0,.58-.3h0C131.7,181,127.24,175.21,122.32,175.49Z" style="fill:#263238"/><path d="M194.34,347.07H100.43c-2.24.1-4.36.1-6.3,0H82c.16-.84.32-1.74.5-2.68a5.26,5.26,0,0,1,.2-.94c.06-.32,0-.12,0-.18s.14-.7.22-1.06c2.92-14.55,8.12-38.48,14.94-61.58a2.86,2.86,0,0,1,.22-.78c.08-.26.28-1,.44-1.44,6-20.43,13.46-40,21.59-51.44.58-.86,1.2-1.68,1.82-2.44s1.12-1.38,1.7-2a35.58,35.58,0,0,1,2.9-2.86c1.52-1.28,1.3-11.39,2-12a16.09,16.09,0,0,1,4.16.12c4,.36,10.44,1.12,16,1.89,2.68.36,5.16.74,7.06,1.06a14.9,14.9,0,0,1,3.84.84c.38.72,2,10.24,2,10.24l.72.92.62.82c2.92,3.82,7.42,10,12,16.72l.36.5a190.54,190.54,0,0,1,15.23,25.61c.2.44.38.9.56,1.34s.44,1.06.62,1.56a.42.42,0,0,0,.14.38,23.45,23.45,0,0,1,.92,3.14c2.48,12-5.06,25.31-5.46,26h0l1,6.85.36,2.48.42,2.86v.66l1.12,7.8,3.26,22.33.3,2Z" style="fill:#ccd6f6"/><path d="M172.25,294.65A62.48,62.48,0,0,0,156,297.37c-5.32,1.5-17.09,6.16-20,7.3m0,.12a99.35,99.35,0,0,0,11.31-3.4c5.22-1.78,10.48-3.38,15.8-4.76a77.15,77.15,0,0,1,9.16-1.66c.22,0,.24-.32,0-.32Z" style="fill:#263238"/><path d="M182,297.45A50.87,50.87,0,0,0,164.85,299v.12c2.82-.34,5.66-.66,8.5-.9s5.73-.4,8.59-.58A.08.08,0,1,0,182,297.45Z" style="fill:#263238"/><path d="M131.84,218.15a21.36,21.36,0,0,1,.18-7.48A21.37,21.37,0,0,1,131.84,218.15Z" style="fill:#263238"/><path d="M136.82,218.75a21.38,21.38,0,0,1,.18-7.48,21.37,21.37,0,0,1-.18,7.48Z" style="fill:#263238"/><path d="M141.78,219.29a21.48,21.48,0,0,1,.18-7.5A21.48,21.48,0,0,1,141.78,219.29Z" style="fill:#263238"/><path d="M146.77,219.85a21.12,21.12,0,0,1,.18-7.48,19.49,19.49,0,0,1,.24,3.74A21.42,21.42,0,0,1,146.77,219.85Z" style="fill:#263238"/><path d="M151.73,220.41a21.36,21.36,0,0,1,.18-7.48A21.37,21.37,0,0,1,151.73,220.41Z" style="fill:#263238"/><path d="M156.71,221a21.36,21.36,0,0,1,.18-7.48A21.37,21.37,0,0,1,156.71,221Z" style="fill:#263238"/><path d="M175,240.21c13.07,17.65,28.61,38,13,59.26l.26-.82L190,311.36h0v.26c1.56,11.82,3.06,23.66,4.3,35.55q-3.33-17.62-6-35.31v-.16l-2-12.67v-.46c15.12-20.62,0-39.79-11.33-58.26Z" style="fill:#263238"/><path d="M179.58,243.24a16.21,16.21,0,0,1,3.84,9.52,67.12,67.12,0,0,1-3.78-9.52Z" style="fill:#263238"/><path d="M242.68,340.43h0c-.1.28-.22.55-.34.82a17.35,17.35,0,0,1-1.53,2h-.1a8.47,8.47,0,0,1-1.12,1.12A20.69,20.69,0,0,1,236,347h-81.2c-1.7-3.08-3.32-6.26-4.68-9.3v-.12l-.42-1c-.32-.7-.62-1.4-.88-2-2.86-7-4-12.66-1.68-13.34L148,321c1.24-.32,2.8-.74,4.62-1.18l.42-.1h.22l.5-.12,3.6-.88c3-.72,6.42-1.52,9.86-2.3l6.24-1.44c3.85-.86,7.51-1.68,10.59-2.34h.2l4.86-1,.8-.14h.42c1.06-.2,1.76-.34,2-.36h1a36.87,36.87,0,0,1,10.82,1.22l.78.2,1.06.3.4.12A69.89,69.89,0,0,1,219,318.14c2.3,1.2,4.52,2.5,6.62,3.86C236,328.4,243.44,336.4,242.68,340.43Z" style="fill:#eb9481"/><path d="M185.42,347.07H105.93a2.36,2.36,0,0,1,.32-.44,2.36,2.36,0,0,1,.32-.44c.14-.22.32-.44.5-.68a66.75,66.75,0,0,1,21.45-18.73,94.15,94.15,0,0,1,19.49-6.5l4.36-1h.16l.44-.1a2.66,2.66,0,0,0,.56-.12l3.46-.68.32.32c1.06,1,4.68,4.52,9.1,8.9l.2.2,3.74,3.72.2.22h0C176,337.08,181.74,342.93,185.42,347.07Z" style="fill:#eb9481"/><path d="M242.8,341.85V342a17.16,17.16,0,0,1-5.17,5.08H179.3L166,333.18h0l-.38-.4-3.14-3.28h0l-.8-.86-7.3-7.62-1.14-1.18h0l-.46-.48-.28-.3.92-.28L167,316l6.38-1.32L189,311.44l.76-.16h.5a28.12,28.12,0,0,1,3.18-.36,36.88,36.88,0,0,1,10.1.88h0l.74.2a7.46,7.46,0,0,1,1.06.26h.34a60.85,60.85,0,0,1,11.45,4.4,74.74,74.74,0,0,1,8.92,5.18c9,6,15.65,13.14,16.73,17.57A3.59,3.59,0,0,1,242.8,341.85Z" style="fill:#233554"/><path d="M219.09,317.68A41.26,41.26,0,0,0,190.34,311c-.12,0-.1.22,0,.2,10.4-.62,24.63,4.36,28.63,6.6Z" style="fill:#263238"/><path d="M198.6,347.07h-1.54c-1.08-1.08-2.16-2.18-3.2-3.28-3.5-3.54-6.94-7.11-10.36-10.71-2.8-3-5.62-6-8.39-8.94l-1.8-2c-1.26-1.38-2.48-2.78-3.7-4.18,0,0,0-.2.14-.12,1.24,1.14,2.46,2.32,3.68,3.5l2.44,2.38,2.23,2.2c4.88,4.8,9.62,9.76,14.36,14.69l1.1,1.14C195.26,343.53,196.94,345.29,198.6,347.07Z" style="fill:#263238"/><path d="M152.23,318.32a58.33,58.33,0,0,1,7.72-2c2.6-.58,5.22-1.1,7.84-1.62,5.2-1,16.11-3.72,25.77-4,.12,0-.42.52-.52.52-4.6-.1-37.37,7.52-40,7.8a3.65,3.65,0,0,1,.32.54c0,.12,0,.3-.22.22a7.41,7.41,0,0,1-.92-.74.38.38,0,0,1-.23-.49A.36.36,0,0,1,152.23,318.32Z" style="fill:#263238"/><path d="M109.17,241.34c-14.7,25.48-39,79.72-28.68,99.17,10,18.72,75.84-8.67,91-14.71,6.25-2.46-3.08-50.77-10-48.95-15.24,4-38,14.78-38.77,14.3s3.32-23.13,6.44-45.59C133.7,212.89,119.74,223,109.17,241.34Z" style="fill:#eb9481"/><path d="M152,281.61s17.06-9.27,27.55-11.35a68.8,68.8,0,0,1,32.73,2.32c11.42,3.65,36.51,20.35,33,28.41-3.2,7.31-28-11.06-28-11.06s28.35,14.54,22.86,22.63-33-14.89-33-14.89,28.79,15.63,21.83,23.05c-5.28,5.62-31.39-13.76-31.39-13.76s24.65,13.58,19.49,19.6c-5.72,6.64-31-9.74-31-9.74-15.73,13.08-28.55,12.86-37.67,11.64C146.13,328.16,152,281.61,152,281.61Z" style="fill:#eb9481"/><path d="M207.7,284.27a105.34,105.34,0,0,1,10,5.06c3.16,1.9,6.42,3.88,9.46,6a63.71,63.71,0,0,1,11.06,9.6,138.44,138.44,0,0,0-21.08-14.8c-3.22-1.88-6.36-4-9.61-5.8Z" style="fill:#263238"/><path d="M200.68,295.83c4.24,2.22,8.55,4.26,12.69,6.66s7.84,5.05,11.78,7.71c.32.2,0,.3-.22,0-4-2.5-8-4.5-12-7s-8-5.08-12.25-7.38C200.56,295.89,200.62,295.79,200.68,295.83Z" style="fill:#263238"/><path d="M192.88,304.77a105.88,105.88,0,0,1,18.61,11.67c.3.22,0,.32-.3.12-6.13-4-10.89-7.18-18.43-11.57C192.66,304.77,192.74,304.61,192.88,304.77Z" style="fill:#263238"/><path d="M172.61,331h-.12l-1.86.6-4.7,1.44c-4,1.2-9.52,2.82-15.84,4.52a304.89,304.89,0,0,1-43.84,9c-2,.2-4,.36-5.82.44-2.24.1-4.36.1-6.3,0a30.73,30.73,0,0,1-6.12-.88,13.38,13.38,0,0,1-5.32-2.74c-12.49-10.59-.1-42.92,2.12-50.94.6-2,2.74-7.58,5.72-14.54v-.12h0c.72-1.66,1.48-3.42,2.3-5.23l.72-1.66.24-.52c6-13.18,13.72-28.74,19.75-37.09a33.81,33.81,0,0,1,8.36-8.8c6-3.88,9.58,1,8.4,16.62-.32,4.21-.76,8.57-1.28,12.85v.68c-.62,5.16-1.32,10.22-2,14.8v.28c-1.32,9-2.52,16.11-2.66,18.47a.54.54,0,0,0,0,.18v.66l.26-.1.4-.18c4.16-1.82,26.17-12.12,27.49-12.74h0l.36,1v.16l.72,2,.44,1.22,5,13.78.76,2.12.38,1,6.38,17.53.36,1v.46l3.56,9.74h0l.48,1.32h0l1.26,3.42Z" style="fill:#ccd6f6"/><path d="M124.36,288.35a58.64,58.64,0,0,0-8,8.22,101.65,101.65,0,0,0-6.63,8.93s.14.12.18,0c2.32-2.93,5-5.71,7.49-8.55s5.32-5.52,7.62-8.42C125.08,288.41,124.58,288.19,124.36,288.35Z" style="fill:#263238"/><path d="M129.08,248.24c-.26,3.21-.6,6.42-.88,9.6l-1,9.61c-.64,6.37-1.44,12.76-2,19.11v2.09h0v-.14a.69.69,0,0,0-.34-.37h0l.46-.21.94-.44,3.78-1.93,7.36-4.12,7.61-3.88,7.66-3.79h0l.38,1.4-.5-1.35h.1c-2.44,1.53-4.9,3-7.36,4.48l-7.45,4.33c-2.48,1.44-5,2.81-7.48,4.18l-3.82,2-1,.49-.52.21h-1a1,1,0,0,1-.38-.44v-2.89c.64-6.41,1.48-12.78,2.4-19.13l1.42-9.51C128,254.57,128.5,251.45,129.08,248.24Z" style="fill:#263238"/><path d="M151.53,313.16c-2.26-6.32-4.48-12.67-7-18.91-1.42-3.54-2.82-7.1-4.28-10.64,0-.14-.28,0-.24,0,2,6.44,4,12.88,6.39,19.24s4.54,12.65,6.94,18.93q2,5.34,4.4,10.58c2.4,5.24.14,0,.12,0C156.07,325.88,153.81,319.54,151.53,313.16Z" style="fill:#263238"/><path d="M130.38,260.76a46.83,46.83,0,0,1-1.5,4.66,43.07,43.07,0,0,1-2,4.5A47.92,47.92,0,0,1,130.38,260.76Z" style="fill:#263238"/><path d="M438.64,803.47c4.5,1.5,132.92,1.12,137.8-2,1.86-1.16,2.9-19.89,3.5-42.51.14-4.91-.28-83.71-.28-83.71h-83v68.62l.44,15.09s-49.09,22.12-54,26.12S434.15,802,438.64,803.47Z" style="fill:#eb9481"/><path d="M437.5,804.09c4.6,1.52,136.16.9,141.16-2.3,1.9-1.2,3.78-21.49,1.88-43.91l-84.83.5S447.08,781.14,442,785.24,432.91,802.57,437.5,804.09Z" style="fill:#37474f"/><path d="M578.68,801.79l-.28.12h-.22c-4.34,1.24-28.29,2-55.24,2.5l55.6-46.61h2C582.46,780.3,580.58,800.59,578.68,801.79Z" style="isolation:isolate;opacity:0.100000001490116"/><path d="M439.38,798.93c22-.66,111-1.18,132.9-.14.18,0,.18.12,0,.14-21.85,1.12-110.86.92-132.9.36C438.92,799.17,438.92,798.93,439.38,798.93Z" style="fill:#263238"/><path d="M450.44,780.46a17.83,17.83,0,0,1,13.22,5.32,17.33,17.33,0,0,1,5,11.77c0,.12-.26.14-.28,0a20.49,20.49,0,0,0-18-16.81.14.14,0,0,1-.1-.18.15.15,0,0,1,.18-.1Z" style="fill:#263238"/><path d="M488.83,760.62c8.82-.16,19.07,2.9,24.59,10,.22.28-.18.58-.44.44a122.37,122.37,0,0,0-24.31-9.46.56.56,0,0,1-.11-.79A.52.52,0,0,1,488.83,760.62Z" style="fill:#263238"/><path d="M482,763.3c8.82-.16,19.07,2.92,24.59,10.1.22.28-.18.58-.44.44a122.54,122.54,0,0,0-24.31-9.44.56.56,0,0,1-.39-.69A.55.55,0,0,1,482,763.3Z" style="fill:#263238"/><path d="M475.23,766c8.82-.16,19.06,2.9,24.59,10,.22.28-.18.58-.44.46A122.85,122.85,0,0,0,475.07,767a.56.56,0,0,1-.15-.78A.5.5,0,0,1,475.23,766Z" style="fill:#263238"/><path d="M468.43,768.68c8.82-.16,19.06,2.9,24.58,10.1.22.28-.18.58-.44.44a121.24,121.24,0,0,0-24.3-9.44.57.57,0,0,1-.4-.69A.56.56,0,0,1,468.43,768.68Z" style="fill:#263238"/><path d="M566.56,777.76c9.9,0,10,15.39,0,15.41S556.63,777.78,566.56,777.76Z" style="fill:#263238"/><path d="M480,750c4.78,6.15,12,10,18.36,14.29a1.08,1.08,0,0,0,1.47-.42,1.25,1.25,0,0,0,.12-.3c.16,0,.3,0,.28-.26a46.39,46.39,0,0,0-8.13-22.43c-2.78-3.84-8.42-7.42-12.88-3.7S477.15,746.47,480,750Zm-.44-7.3c.82-9.6,9.52-2.28,11.46.64a49.59,49.59,0,0,1,3.24,6q2.85,6.39,5.05,13c-3-2.3-6.11-4.34-9.17-6.54C486.47,753.19,479.05,748,479.51,742.73Z" style="fill:#263238"/><path d="M531.53,757.58c-.72-5.77-7.31-7-12-6a46.3,46.3,0,0,0-21.31,10.95.24.24,0,0,0,0,.33l0,0a1.06,1.06,0,0,0,.34,1.46,1.35,1.35,0,0,0,.35.14c7.54,1.14,15.48,3.3,23.16,2C526.6,765.8,532.19,763,531.53,757.58Zm-20.75,6.24c-3.74-.46-7.42-1.12-11.16-1.44a132.71,132.71,0,0,1,12.58-6.12,48.38,48.38,0,0,1,6.42-2.15c3.4-.8,14.77-.26,8.82,7.35-3.28,4.2-12.24,2.92-16.68,2.36Z" style="fill:#263238"/><path d="M625.39,291.85S581.58,511.92,578.5,528.16c-.72,3.71,2,217.15,2,217.15H496.75s-5.7-188.54-1.78-221,53.56-232.47,53.56-232.47Z" style="fill:#263238"/><path d="M625.41,291.87S604.09,399,590.12,469.25L548.51,291.87Z" style="fill:#37474f"/><path d="M573.92,728.49c-4.74-.72-40.87-2.2-71.08-.66-.2,0-.2.34,0,.36,9.86,1,65.5,1.48,71,.72C574.06,728.91,574.14,728.53,573.92,728.49Z" style="fill:#37474f"/><path d="M566.6,720.66c-.66-26-1.66-78.14-2-104.15,0-29.33-1.28-58.76.16-88,8.5-42,26.2-127.6,34.91-169l10.88-50.95-10,51.13c-7.81,39.61-25.07,125.72-33.29,166a35.59,35.59,0,0,0-1,6.33c-.44,10.78-.36,21.64-.4,32.47,0,33.33.46,121.85.62,156.24Z" style="fill:#37474f"/><path d="M549,804.39c4.5,1.44,132.9-.18,137.76-3.32,1.84-1.18,2.7-19.91,3.1-42.55,0-4.89-5.1-83.25-5.1-83.25l-79,.36,1.3,83.69s-48.9,22.62-53.84,26.64S544.49,802.93,549,804.39Z" style="fill:#eb9481"/><path d="M547.17,804.09c4.6,1.52,136.16.9,141.16-2.3,2-1.2,3.79-21.49,1.88-43.91l-84.82.5s-48.62,22.76-53.74,26.86S542.57,802.57,547.17,804.09Z" style="fill:#37474f"/><path d="M549,798.93c22-.66,111.06-1.18,132.9-.14.18,0,.18.12,0,.14-21.84,1.12-110.85.92-132.9.36C548.57,799.17,548.57,798.93,549,798.93Z" style="fill:#263238"/><path d="M560.09,780.46a17.87,17.87,0,0,1,13.23,5.32,17.21,17.21,0,0,1,5,11.77c0,.12-.24.14-.26,0a20.51,20.51,0,0,0-18-16.81.15.15,0,0,1-.11-.17A.16.16,0,0,1,560.09,780.46Z" style="fill:#263238"/><path d="M598.49,760.62c8.82-.16,19.08,2.9,24.58,10,.22.28-.18.58-.44.44a122.35,122.35,0,0,0-24.28-9.46.54.54,0,0,1-.18-.75A.51.51,0,0,1,598.49,760.62Z" style="fill:#263238"/><path d="M591.68,763.3c8.83-.16,19.09,2.92,24.59,10.1.22.28-.18.58-.44.44a122.37,122.37,0,0,0-24.29-9.44.57.57,0,0,1-.39-.69A.56.56,0,0,1,591.68,763.3Z" style="fill:#263238"/><path d="M584.88,766c8.82-.16,19.09,2.9,24.59,10,.22.28-.18.58-.44.46A122.44,122.44,0,0,0,584.74,767a.53.53,0,0,1-.21-.73A.5.5,0,0,1,584.88,766Z" style="fill:#263238"/><path d="M578.08,768.68c8.82-.16,19.09,2.9,24.59,10.1.22.28-.18.58-.44.44a121.76,121.76,0,0,0-24.29-9.44.56.56,0,0,1-.39-.69A.55.55,0,0,1,578.08,768.68Z" style="fill:#263238"/><path d="M676.21,777.76c9.9,0,10,15.39,0,15.41S666.31,777.78,676.21,777.76Z" style="fill:#ccd6f6"/><path d="M589.54,750c4.78,6.15,12,10,18.37,14.29a1.1,1.1,0,0,0,1.49-.44,1,1,0,0,0,.11-.28c.14,0,.28,0,.26-.26a46.24,46.24,0,0,0-8.06-22.43c-2.78-3.84-8.43-7.42-12.87-3.7S586.8,746.47,589.54,750Zm-.44-7.3c.82-9.6,9.53-2.28,11.47.64a48.85,48.85,0,0,1,3.24,6,138.39,138.39,0,0,1,5,13c-3-2.3-6.1-4.34-9.16-6.54-3.56-2.69-11-7.85-10.53-13.15Z" style="fill:#263238"/><path d="M641.16,757.58c-.72-5.77-7.3-7-12-6a46.3,46.3,0,0,0-21.31,10.95.22.22,0,0,0,0,.33l0,0a1.09,1.09,0,0,0,.38,1.48,1.34,1.34,0,0,0,.3.12c7.56,1.14,15.48,3.3,23.17,2C636.26,765.8,641.84,763,641.16,757.58Zm-20.75,6.24c-3.72-.46-7.42-1.12-11.16-1.44,4.16-2.12,8.22-4.42,12.58-6.12a48.51,48.51,0,0,1,6.43-2.15c3.4-.8,14.76-.26,8.82,7.35-3.26,4.2-12.23,2.92-16.67,2.36Z" style="fill:#263238"/><path d="M606.87,747h83S679.57,602.87,678,578.6c-.76-12.36-8.62-146.59-15.8-206.06a113.78,113.78,0,0,0-11.83-80.79h-102s1.6,44,13.3,73.36A178.87,178.87,0,0,1,588.24,377S597.37,560.27,599,591.74C601.17,631.82,606.87,747,606.87,747Z" style="fill:#263238"/><path d="M681.77,730.63c-4.74-.72-40.87-2.2-71.08-.68-.2,0-.18.34,0,.38,9.86,1,65.5,1.46,71,.72C681.91,731,682,730.67,681.77,730.63Z" style="fill:#37474f"/><path d="M561,364.79a186,186,0,0,1,29.71,11.63.33.33,0,0,1-.22.62h0c-10-3.56-20.16-6.94-30-11.05a.65.65,0,0,1-.34-.86A.66.66,0,0,1,561,364.79Z" style="fill:#37474f"/><path d="M553.87,298.41c0-.34.6-.44.62,0a322.5,322.5,0,0,0,3.68,32.37c.76,5,6.55,32.41,15.11,29.85,1.42-.44,2-2,2.16-4.12a34.46,34.46,0,0,0-1.68-8.42c-1.32-5.74-2.46-11.51-3.34-17.33a158.28,158.28,0,0,1-1.7-32.77.28.28,0,0,1,.28-.28.29.29,0,0,1,.28.28,300.61,300.61,0,0,0,5.48,45c1.56,7.14,5.86,17.74-1.6,19.32s-13.71-16.22-15-21.12A167.18,167.18,0,0,1,553.87,298.41Z" style="fill:#37474f"/><path d="M573.1,361.33a49.52,49.52,0,0,1,2.3,5.6,13.48,13.48,0,0,1,1.12,4.67c0,.32-.42.36-.6.18a16.76,16.76,0,0,1-2.3-4.47c-.78-1.74-1.58-3.46-2.3-5.22a1,1,0,1,1,1.78-.76Z" style="fill:#37474f"/><path d="M607.55,305.11c0-.22.34-.18.36,0,1.14,8.35,1.8,17,5.82,24.57,3.7,7,10.14,11.43,17.19,14.57a125.6,125.6,0,0,0,12.5,4.62.26.26,0,0,1,.18.32.27.27,0,0,1-.18.18c-8-1.66-16-3.52-23-8C613,336.58,609.17,328.9,608,320.32A74.36,74.36,0,0,1,607.55,305.11Z" style="fill:#37474f"/><path d="M641.44,297.67c7.88,22.87,15.38,49.42,9,73.47,8,113.29,16.35,235.45,24.25,349.52-7.38-84-14.6-177.53-19.89-262.2q-2.91-43.77-5.56-87.58a64.44,64.44,0,0,0,2.6-18.41c0-18.69-4.42-37.19-10.4-54.8Z" style="fill:#37474f"/><path d="M570.9,181.88c-41,36.17-79.17,75.84-82.33,96.29-4.4,28.31,12.95,36.35,20.75,36.51,21.26.46,60.86-85.31,74.68-118C597.41,164.73,579.9,173.93,570.9,181.88Z" style="fill:#eb9481"/><path d="M553.75,258l-5.22,33.81H652.46s-9-75.24-32.55-110c-11.36-16.79-26.53-14.43-37.49-4-2.78,2.66-30,41-33.85,57.09A25.9,25.9,0,0,0,553.75,258Z" style="fill:#233554"/><path d="M570.36,255a89.67,89.67,0,0,1,12.84,3c2,.68,4.12,1.46,6.14,2.28,1,.42,2,.8,3.06,1.16a14.67,14.67,0,0,0,3.31.86c.1,0,0,.16,0,.16a24.54,24.54,0,0,1-3.21-.28,27.11,27.11,0,0,1-3-.78c-2.12-.68-4.2-1.46-6.3-2.16-4.26-1.4-8.5-2.8-12.86-3.9C570.08,255.28,570.16,254.94,570.36,255Z" style="fill:#263238"/><path d="M559.29,258.12a94.21,94.21,0,0,1,10.89.2c1.82.14,3.6.4,5.4.7l2.56.46c.92.18,1.84.5,2.78.66.1,0,0,.18,0,.16-.88-.14-1.8-.12-2.7-.2l-2.7-.26-5.4-.5c-3.62-.36-7.22-.7-10.85-.94C559.07,258.4,559.09,258.12,559.29,258.12Z" style="fill:#263238"/><path d="M608.41,177.24c-.52,2-10.7,15.22-20.13,14.56-3.08-.24-2.6-17.05-2.6-17.05l-.26-1.24L582,156l20.75-12.63,3-1.66s.64,4.85,1.38,10.89a2.59,2.59,0,0,0,.1.86,4,4,0,0,1,.12,1c.14.9.24,1.82.34,2.74s.16,1.38.22,2.12.14,1.46.22,2.2A112.85,112.85,0,0,1,608.41,177.24Z" style="fill:#eb9481"/><path d="M607.07,152.73a35.8,35.8,0,0,1-21.65,20.88L582,156.13l20.75-12.63,3-1.66S606.33,146.59,607.07,152.73Z" style="fill:#263238"/><path d="M557.53,132.72c1.26,31.27,20.15,34,26.87,33.77,6.12-.26,26.93-1.9,28.91-33.13s-13-40.49-27-40.65S556.23,101.49,557.53,132.72Z" style="fill:#eb9481"/><path d="M563.54,129.16c.72-.2,1.12-.7,1.78-1a4.31,4.31,0,0,0,2.36-.9,1.19,1.19,0,0,0-.32-1.36,2.79,2.79,0,0,0-2.8-.28,4,4,0,0,0-2.33,1.76,1.2,1.2,0,0,0,.5,1.62A1.14,1.14,0,0,0,563.54,129.16Z" style="fill:#263238"/><path d="M584.94,127.06a19.62,19.62,0,0,1-2.16-.16,3.66,3.66,0,0,1-2.18-.58,1.14,1.14,0,0,1-.18-1.36,2.77,2.77,0,0,1,2.62-1,4,4,0,0,1,2.72,1.08,1.2,1.2,0,0,1,0,1.7A1.21,1.21,0,0,1,584.94,127.06Z" style="fill:#263238"/><path d="M581.06,135.34a.18.18,0,0,1,.18.18c.16,2.12.72,4.54,2.72,5v.12C581.54,140.6,580.88,137.4,581.06,135.34Z" style="fill:#263238"/><path d="M582.7,132.92c3.38-.64,4.42,6.18,1.28,6.76S579.86,133.46,582.7,132.92Z" style="fill:#263238"/><path d="M584.1,133.08c.64.3,1.34.88,2,.84s1.36-.84,1.8-1.62H588a2.53,2.53,0,0,1-1.44,3.14c-1.26.36-2.34-.66-2.88-2C583.68,133.36,583.82,133,584.1,133.08Z" style="fill:#263238"/><path d="M568.76,135.88s-.14.12-.12.2c.4,2,.5,4.58-1.28,5.58v.12C569.66,141.08,569.54,137.8,568.76,135.88Z" style="fill:#263238"/><path d="M566.54,134c-3.44.28-2.62,7.12.56,6.86S569.4,133.74,566.54,134Z" style="fill:#263238"/><path d="M565.16,134.6c-.5.42-1,1.14-1.6,1.26s-1.39-.52-2-1.18h-.1c.12,1.32.72,2.62,2,2.72s1.88-1.12,2-2.46C565.54,134.72,565.36,134.42,565.16,134.6Z" style="fill:#263238"/><path d="M582.54,152.41c-.4.6-.78,1.36-1.52,1.58a5.52,5.52,0,0,1-2.36,0s-.12,0,0,.12a2.87,2.87,0,0,0,2.88.62,2.26,2.26,0,0,0,1.28-2.18C582.76,152.35,582.6,152.33,582.54,152.41Z" style="fill:#263238"/><path d="M573.88,150.11a8.81,8.81,0,0,0,3.66,2.42,3.87,3.87,0,0,0,2.38,0c1.68-.6,1.6-2.16,1.18-3.5a9.79,9.79,0,0,0-.92-2A11.29,11.29,0,0,1,573.88,150.11Z" style="fill:#263238"/><path d="M577.54,152.53a3.87,3.87,0,0,0,2.38,0c1.68-.6,1.6-2.16,1.18-3.5A4,4,0,0,0,577.54,152.53Z" style="fill:#ff9cbd"/><path d="M572.64,146s0,3.22.2,4.7c0,.14.4.16.9.12h0a7.12,7.12,0,0,0,6.5-3.62c.1-.16-.12-.28-.24-.16a10.89,10.89,0,0,1-6.2,2.76c-.16-.4.16-5.53,0-5.51a12.64,12.64,0,0,0-3.26,1.25c-.22-6.71.66-13.39.36-20a.2.2,0,1,0-.4,0,108.32,108.32,0,0,0-1.32,21.59C569.16,147.89,572.08,146.35,572.64,146Z" style="fill:#263238"/><path d="M611.07,134.16c-6.5.58-8.32-14.22-8.32-14.22s-11.19-.9-16.49-7.89c0,0,3.7,6.13,8.26,8.35.79.36-21.72.44-25.6-16.41,0,0-1.52,17.19-11.33,21.69-.46.2,0-15.49,2.8-19.43a33.59,33.59,0,0,1,5.81-6.16,32,32,0,0,1,22.72-8.46c13.89.56,24.33,14,26,19.78C618.15,122.72,614.15,133.86,611.07,134.16Z" style="fill:#263238"/><path d="M593.86,120.84c-12.2.72-22.66-6-25-18.31a.28.28,0,0,0-.35-.19.26.26,0,0,0-.19.19C568,115.3,582.58,123.1,594,121,594.26,121,594.14,120.82,593.86,120.84Z" style="fill:#263238"/><path d="M611,133.46c-6.92-2.68-8.66-9.18-9.86-15.84a.17.17,0,0,0-.23-.11.14.14,0,0,0-.11.11c.58,6.58,2.62,14.52,10,16.38a.3.3,0,0,0,.2-.54Z" style="fill:#263238"/><path d="M568.56,101.43h-.14c-.76,7.1.16,18.87-8.57,21.57a.18.18,0,0,0,0,.36C568.56,121.54,570.24,108.53,568.56,101.43Z" style="fill:#263238"/><path d="M607.07,134s5.54-10.54,10.24-8.68,1.4,16.54-3.52,19.12a5.27,5.27,0,0,1-7.25-1.77l-.13-.23Z" style="fill:#eb9481"/><path d="M616.25,129.54s.12,0,0,.14c-3.42,2-4.9,5.52-5.78,9.16a2.92,2.92,0,0,1,3.83-1.54,3.55,3.55,0,0,1,.39.2c.1,0,0,.22,0,.2a3.3,3.3,0,0,0-3.42,1.58,17,17,0,0,0-1.34,3.1c-.12.34-.72.24-.66-.14v-.1C608.59,137.54,611.37,130.72,616.25,129.54Z" style="fill:#263238"/><path d="M610.43,172.25a24.38,24.38,0,0,0-11.64-2.38c-4.49.14-13.61,5.54-13.61,5.54s-11.3,41.36-4.66,41.72C588.76,217.57,611.39,173.93,610.43,172.25Z" style="fill:#eb9481"/><path d="M624,178.36c38.2,30,75.75,81.86,76,110.87.26,28.63-21.21,19-28.25,14-15-10.82-42.31-69.06-54.72-101.53S614.53,170.93,624,178.36Z" style="fill:#eb9481"/><path d="M664.47,292.53c-2-3.62-4-7.18-6-10.82l-6-10.83c-4-7.24-8-14.44-11.74-21.74S633,234.59,629.2,227.27q-2.87-5.46-5.55-11c-1.88-3.68-3.56-7.43-5.3-11.19A217.42,217.42,0,0,0,627.82,228c3.5,7.48,7.32,14.81,11.14,22.13s8,14.46,12.16,21.56S659.73,285.77,664.47,292.53Z" style="fill:#263238"/><path d="M622.43,214.75a32.24,32.24,0,0,0-2.36-3.74c-.44-.58-.84-1.18-1.3-1.76s-.88-1.17-1.4-1.75a11.44,11.44,0,0,0,1.88,4A12.89,12.89,0,0,0,622.43,214.75Z" style="fill:#263238"/><path d="M500.54,236.25c2-13.44,6-32.19,10.88-36S535,182.58,540.31,180.8s29-10.49,33.33-8c3.46,2-.76,11.15-12,15.39a165,165,0,0,0-17.9,8.56c-2.9,1.22-10,10.46-8,14.61,1.08,2.44,8.12,5.38,12.54,3.44s5.62-10.65,10.68-14.69,14-3.46,14.43-1.06-2.46,3.48-7.08,11.57c-3,5.2-3.32,17.76-10,26.68a155.25,155.25,0,0,0-9.3,16.49Z" style="fill:#eb9481"/><path d="M563.54,196.34a9,9,0,0,0,4.4-2,3.57,3.57,0,0,0,1-1.8,3.51,3.51,0,0,0,0-1.12,1.71,1.71,0,0,0-.42-1.08c-.1,0,0-.16,0,0a4.19,4.19,0,0,0,.4.54,5,5,0,0,1,.26.52,3.16,3.16,0,0,1,.16,1.1,3.57,3.57,0,0,1-.9,2.22,6,6,0,0,1-5.06,1.76S563.54,196.36,563.54,196.34Z" style="fill:#263238"/><path d="M511.52,200.18c4.34-6.66,15.42-18.66,26.31-22.7,7.36-2.75,32.45,9.82,31.67,14.62s-5.1,4.78-11.47,4c-2.32-.3-14.56-4.84-16.68-2.28-3.06,3.66-7,16.31-7,16.31Z" style="fill:#eb9481"/><path d="M568.8,190.22c-3.06-5.2-9.89-8-16.69-10.26-.1,0-.16.12,0,.16,1.74.56,12.79,5.8,16.67,10.18C568.76,190.34,568.82,190.26,568.8,190.22Z" style="fill:#263238"/><path d="M511.52,200.18c4.34-6.66,15.42-18.66,26.31-22.7,7.36-2.75,27.15,13.2,26.37,18s-7,5.14-13.81,2.68c-2.2-.8-9.56-6-11.68-3.54-3,3.68-10.49,12.8-10.49,12.8Z" style="fill:#eb9481"/><path d="M532.41,201.78c.7-1.06.94-1.42,1.66-2.46s1.44-2,2.24-3.06a9.65,9.65,0,0,1,2.28-2.36,5,5,0,0,1,3-.56,17.14,17.14,0,0,1,6.48,3c2.24,1.3,6.88,3.44,10.46,3.1a6.89,6.89,0,0,0,2.82-.72,4.56,4.56,0,0,0,1.71-1.34c1.58-2.6-.35-5.62-2.29-7.76a45.15,45.15,0,0,0-13.36-9.32c-1.16-.6-2.36-1.16-3.54-1.72a10.45,10.45,0,0,0-4.32-1.28c-2.48,0-6.56,2.42-7.84,3.18-.1,0-.16,0,0-.16,1.54-.94,5.36-4,9.34-3.75a12.35,12.35,0,0,1,4.16,1.45c1.38.62,2.76,1.28,4.1,2a54.53,54.53,0,0,1,7.58,4.58,24,24,0,0,1,6.19,6,7,7,0,0,1,.36,7.14,6,6,0,0,1-4.53,2.36,11.94,11.94,0,0,1-3.16,0,49.56,49.56,0,0,1-6.84-2c-2.16-.9-4.1-2.38-6.32-3.08a4.24,4.24,0,0,0-3.24.18,11.28,11.28,0,0,0-2.44,2.18,33.07,33.07,0,0,0-4,4.76C532.45,202.36,532.13,202.22,532.41,201.78Z" style="fill:#263238"/><path d="M508.18,206c1.6-3.18,4.38-16.32,7-20.34s14.32-17.87,19.75-17.21c6.8.84-.42,13.05-4,18s-3.11,13.62-3.11,13.62Z" style="fill:#eb9481"/><path d="M535.93,178.2c-1.28,1.6-2.42,3.36-3.54,5.06a38.77,38.77,0,0,0-3.11,5,18.36,18.36,0,0,0-1.4,5.6c-.09.94-.14,1.89-.14,2.84v3.12m.18,0a46.68,46.68,0,0,1,.8-5.64,23.37,23.37,0,0,1,1.76-5.6c1.63-3.56,4-6.72,5.67-10.24.08-.12-.12-.22-.22-.12Z" style="fill:#263238"/><path d="M527.82,201.6a19.75,19.75,0,0,0,1.64,9.59,33.62,33.62,0,0,0,2.15,4.44,35.27,35.27,0,0,0,2.78,4,37.33,37.33,0,0,1,4.86,8,39.39,39.39,0,0,1,2.52,9.16,25.41,25.41,0,0,0-1.1-9.68,30.4,30.4,0,0,0-4.68-8.66,44.68,44.68,0,0,1-5-8A29.4,29.4,0,0,1,527.82,201.6Z" style="fill:#263238"/><path d="M511.3,313.7c13.28-1.78,22-24,37.11-63.06,2.66-6.84-32-49-36.75-42.7-6,8-22,52-23.65,64C484.71,295.67,495.79,315.8,511.3,313.7Z" style="fill:#eb9481"/><path d="M548.41,250.64c-4.46,14.92-9.88,29.83-18,43.17C536.51,280,542.25,264.42,548.41,250.64Z" style="fill:#263238"/><polygon points="611.19 267.84 542.27 272.96 522 176.38 590.92 171.27 611.19 267.84" style="fill:#263238"/><polygon points="607.81 268.1 538.89 273.2 518.62 176.63 587.54 171.51 607.81 268.1" style="fill:#455a64"/><path d="M553.85,218.75a7.46,7.46,0,0,0,7.78,6.16,6,6,0,0,0,5.73-6.26,5.39,5.39,0,0,0-.1-.9,7.5,7.5,0,0,0-7.79-6.16,6,6,0,0,0-5.73,6.26A6.91,6.91,0,0,0,553.85,218.75Z" style="fill:#fff"/><path d="M689.21,309.12c-12.8,1.76-26.52-2.46-67.9-32.67-5.74-4.19,12.89-52.52,19.23-48.38,8,5.22,37.87,27.25,39.85,29.13C697.1,273.1,697.9,307.94,689.21,309.12Z" style="fill:#eb9481"/><path d="M655.32,242.76s-11.78-16.53-20.66-23.31a71.67,71.67,0,0,0-31.83-12.87c-12.39-1.84-43.64,2.32-44,11.55-.34,8.32,31.39,2.46,31.39,2.46s-33.33.64-31.89,10.76,37.88,1.2,37.88,1.2S562,234,565.1,244.18c2.36,7.7,35.83,1.5,35.83,1.5s-29.43,1.42-27.33,9.44c2.32,8.86,33.55,5.08,33.55,5.08,8.76,19.51,21.33,25,30.45,28C639.8,288.91,655.32,242.76,655.32,242.76Z" style="fill:#eb9481"/><path d="M601.71,219.57c-3.9,0-7.89-.16-11.79.12s-7.82.7-11.68,1.34a68.93,68.93,0,0,0-14.8,4c8.7-2.7,22.68-4,26.6-4.2s7.79-.76,11.69-1.06C601.83,219.71,601.81,219.57,601.71,219.57Z" style="fill:#263238"/><path d="M603,233.67c-5,.12-10,0-15,.42s-9.66,1.12-14.6,1.82c-.38,0-.22.24.16.2,5-.5,9.58-.56,14.56-1s10-1.06,14.89-1.32C603.09,233.79,603.07,233.67,603,233.67Z" style="fill:#263238"/><path d="M606.27,245.58A110.55,110.55,0,0,0,583.4,248c-.38,0-.14.28.24.24,7.58-1,13.53-1.74,22.61-2.4C606.41,245.84,606.43,245.58,606.27,245.58Z" style="fill:#263238"/><path d="M621.55,211.83a66.13,66.13,0,0,1,26.91,20.92,313.49,313.49,0,0,1,29.67,21.83c7.46,5.7,11.88,14.38,14.39,23.29a77.85,77.85,0,0,1,2,9c-2.3-8.78-5.25-17.73-10.85-24.95-10.44-11.06-23.72-19.18-36-28a72.63,72.63,0,0,0-26.21-22Z" style="fill:#263238"/></svg>