<svg xmlns="http://www.w3.org/2000/svg" viewBox="0 0 700 1037.9"><path d="M474.92,501H457a1.33,1.33,0,0,0,0,2.65h17.93a1.33,1.33,0,1,0,0-2.65Z" style="fill:#fff"/><path d="M474.92,506H457a1.33,1.33,0,0,0,0,2.65h17.93a1.33,1.33,0,0,0,0-2.65Z" style="fill:#fff"/><path d="M474.92,511H457a1.33,1.33,0,0,0,0,2.65h17.93a1.33,1.33,0,0,0,0-2.65Z" style="fill:#fff"/><path d="M11.82,414.16a36.35,36.35,0,0,0-1.06-26.51c-.36-.83,1-1.35,1.31-.52a37.89,37.89,0,0,1,1,27.59C12.82,415.57,11.53,415,11.82,414.16Z" style="fill:#fff"/><path d="M522.83,4.28a2.91,2.91,0,0,0-2.89-2.89H4.28A2.91,2.91,0,0,0,1.39,4.28v17a2.85,2.85,0,0,0,.74,1.91c-.46,11.54-.74,26.75-.74,43.4v383.5c0,36,1.3,65.2,2.89,65.2H519.94c1.59,0,2.89-29.24,2.89-65.2V66.58c0-16.65-.28-31.86-.74-43.4a2.81,2.81,0,0,0,.74-1.91Z" style="fill:#fff"/><path d="M519.94,516.67H4.28c-1.57,0-2.52,0-3.43-20.44C.3,483.87,0,467.49,0,450.08V66.58c0-16,.26-31.48.74-43.45C1.66,0,2.7,0,4.28,0H519.94c1.58,0,2.62,0,3.54,23.13h0c.48,12,.74,27.39.74,43.45v383.5c0,17.41-.3,33.8-.85,46.15C522.47,516.67,521.52,516.67,519.94,516.67ZM5.1,513.88h514c1.14-4.37,2.3-28.93,2.3-63.8V66.58c0-16-.26-31.42-.74-43.34h0c-.58-14.65-1.26-19.11-1.58-20.45H5.11c-.32,1.34-1,5.8-1.58,20.45-.48,11.93-.74,27.33-.74,43.34v383.5C2.79,485,4,509.51,5.1,513.88Z" style="fill:#e4e4e4"/><path d="M519.94,1.39H4.28A2.91,2.91,0,0,0,1.39,4.28v17a2.85,2.85,0,0,0,.74,1.91,2.88,2.88,0,0,0,2.15,1H519.94a2.86,2.86,0,0,0,2.15-1,2.81,2.81,0,0,0,.74-1.91v-17A2.91,2.91,0,0,0,519.94,1.39Z" style="fill:#cacaca"/><circle cx="18.16" cy="11.95" r="4.1" style="fill:#fff"/><circle cx="33.73" cy="11.95" r="4.1" style="fill:#fff"/><circle cx="49.29" cy="11.95" r="4.1" style="fill:#fff"/><path d="M171,86.52H110.61A11.42,11.42,0,0,0,99.2,97.93V150.2a11.42,11.42,0,0,0,11.41,11.41H171a11.43,11.43,0,0,0,11.41-11.41V97.93A11.42,11.42,0,0,0,171,86.52Z" style="fill:#233554"/><path d="M419.86,106.73H209.53a5.19,5.19,0,0,0,0,10.37H419.86a5.19,5.19,0,0,0,0-10.37Z" style="fill:#e4e4e4"/><path d="M289.42,131H209.53a5.18,5.18,0,1,0,0,10.36h79.89a5.18,5.18,0,0,0,0-10.36Z" style="fill:#e4e4e4"/><path d="M171,226H110.61A11.42,11.42,0,0,0,99.2,237.43V289.7a11.42,11.42,0,0,0,11.41,11.41H171a11.43,11.43,0,0,0,11.41-11.41V237.43A11.42,11.42,0,0,0,171,226Z" style="fill:#233554"/><path d="M419.86,246.23H209.53a5.18,5.18,0,1,0,0,10.36H419.86a5.18,5.18,0,1,0,0-10.36Z" style="fill:#e4e4e4"/><path d="M289.42,270.52H209.53a5.18,5.18,0,1,0,0,10.36h79.89a5.18,5.18,0,0,0,0-10.36Z" style="fill:#e4e4e4"/><path d="M171,365.51H110.61A11.43,11.43,0,0,0,99.2,376.93V429.2a11.43,11.43,0,0,0,11.41,11.41H171a11.44,11.44,0,0,0,11.41-11.41V376.93A11.44,11.44,0,0,0,171,365.51Z" style="fill:#233554"/><path d="M419.86,385.73H209.53a5.18,5.18,0,1,0,0,10.36H419.86a5.18,5.18,0,1,0,0-10.36Z" style="fill:#e4e4e4"/><path d="M289.42,410H209.53a5.19,5.19,0,0,0,0,10.37h79.89a5.19,5.19,0,0,0,0-10.37Z" style="fill:#e4e4e4"/><circle cx="514.79" cy="472.8" r="4.1" style="fill:#fff"/><circle cx="530.35" cy="472.8" r="4.1" style="fill:#fff"/><circle cx="545.92" cy="472.8" r="4.1" style="fill:#fff"/><path d="M698.61,469.22H498v12.9a2.84,2.84,0,0,0,.64,1.81c-.4,10.09-.64,23-.64,37v345c0,32.33,1.3,58.64,2.89,58.64H695.72c1.59,0,2.89-26.31,2.89-58.64v-345c0-14-.24-26.87-.65-37a2.85,2.85,0,0,0,.65-1.81Z" style="fill:#fff"/><path d="M695.72,925.91H500.91c-1.52,0-2.52,0-3.44-18.53-.54-11.11-.85-25.86-.85-41.51v-345c0-13.52.23-26.67.65-37,.26-6.21.56-11.19.88-14.79.64-7,1.25-8.24,2.76-8.24H695.72c1.5,0,2.11,1.19,2.75,8.24.33,3.62.63,8.59.89,14.79h0c.41,10.33.64,23.47.64,37v345c0,15.66-.3,30.4-.85,41.51C698.24,925.91,697.24,925.91,695.72,925.91Zm-194-2.79H694.93c1-3.81,2.28-24.51,2.28-57.25v-345c0-13.5-.23-26.6-.64-36.9h0c-.26-6.15-.55-11.08-.87-14.65a40.7,40.7,0,0,0-.79-5.7H501.71a40.68,40.68,0,0,0-.78,5.7c-.32,3.56-.62,8.49-.87,14.65-.42,10.31-.65,23.41-.65,36.9v345C499.41,898.61,500.69,919.31,501.7,923.12Z" style="fill:#e4e4e4"/><path d="M695.72,462.24H500.91a2.9,2.9,0,0,0-2.89,2.89v17a2.84,2.84,0,0,0,.64,1.81,2.9,2.9,0,0,0,2.25,1.08H695.72a2.88,2.88,0,0,0,2.24-1.08,2.85,2.85,0,0,0,.65-1.81v-17A2.91,2.91,0,0,0,695.72,462.24Z" style="fill:#cacaca"/><path d="M680.47,467.32H662.54a1.33,1.33,0,0,0-1.32,1.33,1,1,0,0,0,.14.57,1.31,1.31,0,0,0,1.18.75h17.93a1.33,1.33,0,0,0,1.2-.75,1.28,1.28,0,0,0,.13-.57,1.33,1.33,0,0,0-1.33-1.33Z" style="fill:#fff"/><path d="M680.47,472.3H662.54a1.33,1.33,0,0,0,0,2.65h17.93a1.33,1.33,0,1,0,0-2.65Z" style="fill:#fff"/><path d="M680.47,477.28H662.54a1.33,1.33,0,0,0,0,2.65h17.93a1.33,1.33,0,1,0,0-2.65Z" style="fill:#fff"/><path d="M617.7,522.25H580.81a7,7,0,0,0-7,7v31.94a7,7,0,0,0,7,7H617.7a7,7,0,0,0,7-7V529.23A7,7,0,0,0,617.7,522.25Z" style="fill:#233554"/><path d="M663.52,589H535a3.17,3.17,0,0,0,0,6.33H663.52a3.17,3.17,0,1,0,0-6.33Z" style="fill:#e4e4e4"/><path d="M583.8,603.86H535a3.17,3.17,0,0,0,0,6.33H583.8a3.17,3.17,0,0,0,0-6.33Z" style="fill:#e4e4e4"/><path d="M617.7,660.36H580.81a7,7,0,0,0-7,7v31.95a7,7,0,0,0,7,7H617.7a7,7,0,0,0,7-7V667.33A7,7,0,0,0,617.7,660.36Z" style="fill:#233554"/><path d="M663.52,727.12H535a3.17,3.17,0,0,0,0,6.34H663.52a3.17,3.17,0,1,0,0-6.34Z" style="fill:#e4e4e4"/><path d="M583.8,742H535a3.17,3.17,0,0,0,0,6.33H583.8a3.17,3.17,0,0,0,0-6.33Z" style="fill:#e4e4e4"/><path d="M617.7,798.46H580.81a7,7,0,0,0-7,7v31.94a7,7,0,0,0,7,7H617.7a7,7,0,0,0,7-7V805.44A7,7,0,0,0,617.7,798.46Z" style="fill:#233554"/><path d="M663.52,865.23H535a3.17,3.17,0,0,0,0,6.33H663.52a3.17,3.17,0,1,0,0-6.33Z" style="fill:#e4e4e4"/><path d="M583.8,880.07H535a3.17,3.17,0,0,0,0,6.33H583.8a3.17,3.17,0,0,0,0-6.33Z" style="fill:#e4e4e4"/><path d="M517.26,633.19H499.33a1.33,1.33,0,0,1,0-2.66h17.93a1.33,1.33,0,0,1,0,2.66Z" style="fill:#fff"/><path d="M517.26,638.17H499.33a1.33,1.33,0,0,1,0-2.66h17.93a1.33,1.33,0,0,1,0,2.66Z" style="fill:#fff"/><path d="M517.26,643.14H499.33a1.33,1.33,0,0,1,0-2.65h17.93a1.33,1.33,0,0,1,0,2.65Z" style="fill:#fff"/><path d="M532.12,1036.5H186.65c-1.59,0-2.89-24.48-2.89-54.57v-321c0-30.09,1.3-54.57,2.89-54.57H532.12c1.59,0,2.89,24.48,2.89,54.57v321C535,1012,533.71,1036.5,532.12,1036.5Z" style="fill:#fff"/><path d="M532.12,1037.9H186.65c-1.46,0-2.52,0-3.43-17.33-.55-10.34-.85-24.06-.85-38.64v-321c0-14.58.3-28.3.85-38.64.91-17.33,2-17.33,3.43-17.33H532.12c1.46,0,2.51,0,3.43,17.33.55,10.34.85,24.06.85,38.64v321c0,14.58-.3,28.3-.85,38.64C534.63,1037.9,533.58,1037.9,532.12,1037.9Zm-344.7-2.79H531.34c1-3.62,2.27-22.87,2.27-53.18v-321c0-30.31-1.26-49.56-2.27-53.18H187.42c-1,3.62-2.26,22.87-2.26,53.18v321C185.16,1012.24,186.42,1031.49,187.42,1035.11Z" style="fill:#e4e4e4"/><path d="M532.12,629.08H186.65a2.89,2.89,0,0,1-2.89-2.89v-17a2.89,2.89,0,0,1,2.89-2.88H532.12A2.9,2.9,0,0,1,535,609.2v17A2.9,2.9,0,0,1,532.12,629.08Z" style="fill:#cacaca"/><circle cx="200.52" cy="616.87" r="4.1" style="fill:#fff"/><circle cx="216.09" cy="616.87" r="4.1" style="fill:#fff"/><circle cx="231.65" cy="616.87" r="4.1" style="fill:#fff"/><path d="M292.81,734.54H248.74a8.35,8.35,0,0,1-8.34-8.33V688a8.35,8.35,0,0,1,8.34-8.33h44.07a8.34,8.34,0,0,1,8.33,8.33v38.18A8.34,8.34,0,0,1,292.81,734.54Z" style="fill:#233554"/><path d="M474.58,702H321a3.79,3.79,0,1,1,0-7.57h153.6a3.79,3.79,0,1,1,0,7.57Z" style="fill:#e4e4e4"/><path d="M379.32,719.77H321a3.79,3.79,0,0,1,0-7.57h58.35a3.79,3.79,0,0,1,0,7.57Z" style="fill:#e4e4e4"/><path d="M292.81,847.53H248.74a8.35,8.35,0,0,1-8.34-8.33V801a8.36,8.36,0,0,1,8.34-8.34h44.07a8.35,8.35,0,0,1,8.33,8.34V839.2A8.33,8.33,0,0,1,292.81,847.53Z" style="fill:#233554"/><path d="M474.58,815H321a3.79,3.79,0,1,1,0-7.57h153.6a3.79,3.79,0,1,1,0,7.57Z" style="fill:#e4e4e4"/><path d="M379.32,832.77H321a3.79,3.79,0,1,1,0-7.57h58.34a3.79,3.79,0,0,1,0,7.57Z" style="fill:#e4e4e4"/><path d="M292.81,960.53H248.74a8.36,8.36,0,0,1-8.34-8.34V914a8.35,8.35,0,0,1,8.34-8.33h44.07a8.33,8.33,0,0,1,8.33,8.33v38.17A8.35,8.35,0,0,1,292.81,960.53Z" style="fill:#233554"/><path d="M474.58,928H321a3.78,3.78,0,1,1,0-7.56h153.6a3.78,3.78,0,1,1,0,7.56Z" style="fill:#e4e4e4"/><path d="M379.32,945.76H321a3.79,3.79,0,1,1,0-7.57h58.34a3.79,3.79,0,0,1,0,7.57Z" style="fill:#e4e4e4"/></svg>