<svg xmlns="http://www.w3.org/2000/svg" viewBox="0 0 700 697.08"><rect x="200.84" y="7.8" width="190.07" height="255.38" style="fill:#2f2e41"/><rect x="168.19" width="255.38" height="101.37" style="fill:#3f3d56"/><rect x="168.19" y="113.07" width="255.38" height="101.37" style="fill:#3f3d56"/><rect x="168.19" y="226.14" width="255.38" height="101.37" style="fill:#3f3d56"/><rect x="168.19" y="42.98" width="255.38" height="15.6" style="fill:#3fc"/><rect x="168.19" y="156.05" width="255.38" height="15.6" style="fill:#3fc"/><rect x="168.19" y="269.12" width="255.38" height="15.6" style="fill:#3fc"/><circle cx="373.86" cy="14.62" r="5.85" style="fill:#3fc"/><circle cx="394.33" cy="14.62" r="5.85" style="fill:#3fc"/><circle cx="414.79" cy="14.62" r="5.85" style="fill:#3fc"/><circle cx="373.86" cy="125.74" r="5.85" style="fill:#3fc"/><circle cx="394.33" cy="125.74" r="5.85" style="fill:#3fc"/><circle cx="414.79" cy="125.74" r="5.85" style="fill:#3fc"/><circle cx="373.86" cy="236.86" r="5.85" style="fill:#3fc"/><circle cx="394.33" cy="236.86" r="5.85" style="fill:#3fc"/><circle cx="414.79" cy="236.86" r="5.85" style="fill:#3fc"/><path d="M99.06,501.49V682.78a14.3,14.3,0,0,1-14.3,14.3H14.31A14.31,14.31,0,0,1,0,682.78V501.49a14.31,14.31,0,0,1,14.31-14.31h8.54a6.8,6.8,0,0,0,6.3,9.37H69.31a6.82,6.82,0,0,0,6.8-6.81,7,7,0,0,0-.51-2.56h9.16A14.31,14.31,0,0,1,99.06,501.49Z" style="fill:#e6e6e6"/><rect x="4.69" y="521.8" width="89.67" height="124.77" style="fill:#fff"/><rect x="30.15" y="607.6" width="35.79" height="2.05" style="fill:#e6e6e6"/><rect x="30.12" y="615.11" width="55.38" height="2.05" style="fill:#3fc"/><rect x="30.12" y="622.18" width="43.46" height="2.05" style="fill:#e6e6e6"/><rect x="30.12" y="629.26" width="25.57" height="2.05" style="fill:#e6e6e6"/><rect x="30.12" y="636.33" width="38.35" height="2.05" style="fill:#e6e6e6"/><rect x="13.92" y="607.01" width="4.09" height="4.09" style="fill:#e6e6e6"/><rect x="13.92" y="614.08" width="4.09" height="4.09" style="fill:#3fc"/><rect x="13.92" y="621.16" width="4.09" height="4.09" style="fill:#e6e6e6"/><rect x="13.92" y="628.23" width="4.09" height="4.09" style="fill:#e6e6e6"/><rect x="13.92" y="635.31" width="4.09" height="4.09" style="fill:#e6e6e6"/><rect x="31.68" y="537.4" width="36.06" height="36.06" style="fill:#e6e6e6"/><rect x="460.33" y="496.5" width="239.67" height="153.5" style="fill:#e6e6e6"/><rect x="478.4" y="539.44" width="198.71" height="75.09" style="fill:#fff"/><rect x="514.6" y="552.45" width="47.69" height="2.73" style="fill:#e6e6e6"/><rect x="514.55" y="562.46" width="73.79" height="2.73" style="fill:#3fc"/><rect x="514.55" y="571.89" width="57.91" height="2.73" style="fill:#e6e6e6"/><rect x="514.55" y="581.31" width="34.06" height="2.73" style="fill:#e6e6e6"/><rect x="514.55" y="590.74" width="51.1" height="2.73" style="fill:#e6e6e6"/><rect x="492.97" y="551.67" width="5.45" height="5.45" style="fill:#e6e6e6"/><rect x="492.97" y="561.1" width="5.45" height="5.45" style="fill:#3fc"/><rect x="492.97" y="570.52" width="5.45" height="5.45" style="fill:#e6e6e6"/><rect x="492.97" y="579.95" width="5.45" height="5.45" style="fill:#e6e6e6"/><rect x="492.97" y="589.38" width="5.45" height="5.45" style="fill:#e6e6e6"/><rect x="618.56" y="548.85" width="48.79" height="48.79" style="fill:#e6e6e6"/><rect x="460.23" y="496.37" width="239.67" height="10.18" style="fill:#3fc"/><circle cx="467.79" cy="501.57" r="2.04" style="fill:#fff"/><circle cx="474.96" cy="501.57" r="2.04" style="fill:#fff"/><circle cx="482.12" cy="501.57" r="2.04" style="fill:#fff"/><line x1="448.45" y1="338.3" x2="521.03" y2="464.01" style="stroke:#fff;stroke-miterlimit:10;stroke-width:2px"/><polygon points="441.49 326.24 441.49 342.32 455.42 334.28 441.49 326.24" style="fill:#fff"/><polygon points="528 476.07 528 459.99 514.07 468.03 528 476.07" style="fill:#fff"/><line x1="137.86" y1="346.84" x2="51.22" y2="455.47" style="stroke:#fff;stroke-miterlimit:10;stroke-width:2px"/><polygon points="146.18 336.41 131.84 342.04 143.88 351.64 146.18 336.41" style="fill:#fff"/><polygon points="42.9 465.9 57.23 460.27 45.2 450.67 42.9 465.9" style="fill:#fff"/></svg>