<svg xmlns="http://www.w3.org/2000/svg" xmlns:xlink="http://www.w3.org/1999/xlink" viewBox="0 0 700 423.87"><defs><linearGradient id="a" x1="246.7" y1="-3749.08" x2="246.7" y2="-3505.13" gradientTransform="matrix(1, 0, 0, -1, 0, -3325.22)" gradientUnits="userSpaceOnUse"><stop offset="0" stop-color="gray" stop-opacity="0.25"/><stop offset="0.54" stop-color="gray" stop-opacity="0.12"/><stop offset="1" stop-color="gray" stop-opacity="0.1"/></linearGradient><linearGradient id="b" x1="168.13" y1="-3472.16" x2="168.13" y2="-3325.22" xlink:href="#a"/><linearGradient id="c" x1="503.3" y1="-3519.41" x2="503.3" y2="-3326" xlink:href="#a"/><linearGradient id="d" x1="571.98" y1="-3749.08" x2="571.98" y2="-3555.68" xlink:href="#a"/></defs><rect x="118.68" y="179.91" width="256.04" height="243.96" style="fill:url(#a)"/><rect x="124.18" y="185.4" width="245.05" height="232.97" style="fill:#fff"/><rect x="132.97" y="194.2" width="227.47" height="215.38" style="fill:#495670"/><path d="M288.34,242H316.1l-69.4,119.7L177.31,242H230.4l16.3,27.75,16-27.75Z" style="fill:#41b883"/><path d="M177.31,242l69.39,119.7L316.1,242H288.34L246.7,313.86l-42-71.82Z" style="fill:#41b883"/><path d="M204.72,242l42,72.17L288.34,242H262.66l-16,27.75L230.4,242Z" style="fill:#35495e"/><g style="opacity:0.5"><rect width="336.26" height="146.94" style="fill:url(#b)"/></g><rect x="4.4" y="1.89" width="327.47" height="140.66" style="fill:#fff"/><rect x="13.8" y="10.68" width="308.65" height="123.08" style="fill:#495670"/><path d="M269.78,51.1l9.24.06L260.43,76.35a10.71,10.71,0,0,0-1.5,2.1,46.86,46.86,0,0,0-1.8,6.59l-8.46,0a34.56,34.56,0,0,0,1.26-7.24c0-2.2-1.17-4.4-1.8-6.6s-1.5-6.6-1.5-6.6h8.7l1.2,4.8L269.78,51.1" style="fill:#fff"/><path d="M252.27,56c1.71,1,2.75,6.7,2.75,6.7s-8.93.13-13.78.13H237L231.94,85h-7.8s4.85-24.11,6-28.49c.37-1.41,2.54-1.17,6.21-1.17h5.86c3.78,0,8.2-.48,10.06.64M216,66.83a4.69,4.69,0,0,0-.83-3.08c-.91-1.4-1.75-1.73-4.15-1.81-6.77-.21-6.64,4.81-6.64,4.81Zm7.35-5.75c1,3.58-.9,12-.9,12s-9.89-.16-15.3,0c-1.68.05-3.7-.18-4.2.6-.7,1.1.26,2.79,1.08,3.5s2.76.92,3.42,1c4.39.56,13.59.15,13.59.15l-1.59,7.05s-13,.65-19.5-.9a6.64,6.64,0,0,1-3.3-1.8c-.22-.24-.41-.57-.62-.85a8.16,8.16,0,0,1-.88-1.55c-1.48-4,.18-11.53,1.8-15.59.19-.48.43-1.07.68-1.58s.57-1.35.82-1.72.38-.43.55-.68.42-.56.65-.82a12.41,12.41,0,0,1,2.1-1.8c2.71-2,7.61-3.6,13.5-3,2.22.23,5.56,1,7.2,3.3a10.21,10.21,0,0,1,.9,2.7Zm-35.77-5.73,7.56,0s-4.21,20-6.36,29.73h-8.7c-6.07,0-11.49.76-13.79-3.59s-.1-11.18.9-15.9c.71-3.34,2.2-10.17,2.2-10.17l7.83-.07S175,65.94,174.06,71.25c-.33,1.9-1,3.69-.3,5.1s1.62,1.43,4.49,1.5c.92,0,3.9,0,3.9,0l5.4-22.5m-35.39,14.4c.79-2.81,2-5.86,1.8-8.4a7.19,7.19,0,0,0-3.9-5.7,10,10,0,0,0-10.19,2.4c-2.13,2.31-2.85,5-3.6,8.7-.56,2.75-1,5.65,0,7.8,1.8,3.79,7.43,3,13.49,3,.9-2.41,1.65-5.12,2.4-7.8Zm10.5-11.1c.86,6.28-2.45,13.21-4.73,19.24,2.32.21,4.36,0,4.51.14s-1.56,7.2-2.16,7.22c-1.84,0-8,.09-10.52.09-8.32,0-16.12.55-20.09-3.59a13.13,13.13,0,0,1-3-6.6,28.09,28.09,0,0,1,.9-10.2,30.79,30.79,0,0,1,3-7.8c3.5-6.11,9.59-10.64,19.79-9.59a19,19,0,0,1,6.6,2.1c.12.07.55.41.65.47,2.4,1.53,4.59,5.17,5,8.52Zm-36.85-3.26c-.5,2.29-1,4.89-1.54,7.16h-8.4c.65-2.51,1.15-5,1.8-7.2,2.69,0,5.19,0,8.14,0m-10.24,9.26h8.1c-1.06,5.86-3.15,15.31-4.8,21.89-1,4.12-1.71,7.13-4.5,9.3-.24.2-.39.1-.6.3-.51.49-2.88,1.06-4.19,1.2a59.31,59.31,0,0,1-7.18,0c.69-2.51,1.47-5.53,2.08-7.78,6.4.78,6.56-5.27,7.8-11.09.71-3.37,2.88-12.45,3.29-13.8" style="fill:#fff"/><path d="M96.68,80l-.17.45c-3,5.75-8.2,9.29-15.67,9.44a21.74,21.74,0,0,1-9-1.8A23.19,23.19,0,0,1,61,77.85c-3.09-6-3.65-14.32,2.78-20.55.1,0-.78,1.35-.68,1.35l-.18.58c-4.63,14.51,9.65,26.94,23.52,25.51A18.26,18.26,0,0,0,96.68,80" style="fill:#21609b"/><path d="M88.28,74a13.31,13.31,0,0,0,9.3-3.9c-1.89,4.8-7.36,7.88-14.7,6.9-6.14-.82-12-7-12.59-13.2-.44-4.51,1.13-7.2,3.72-10.46a10.79,10.79,0,0,0-1.32,3.86C71.7,66.9,80.48,73.9,88.28,74" style="fill:#21609b"/><path d="M97.23,61.84c-.54,1.24-3.67,3.59-5,3.89a9.63,9.63,0,0,1-10.8-4.38,13.58,13.58,0,0,1-.86-2c-.71-2.41-.39-6.07,1.73-8a10,10,0,0,0-.39,5.25,11.82,11.82,0,0,0,1.44,3.15,8.38,8.38,0,0,0,3.3,2.92,8.7,8.7,0,0,0,1.66.79c1.38.41,4.28,1.48,9-1.71" style="fill:#21609b"/><rect x="406.59" y="0.79" width="193.41" height="193.41" style="fill:url(#c)"/><rect x="412.09" y="6.28" width="182.42" height="182.42" style="fill:#fff"/><rect x="420.88" y="15.07" width="164.84" height="164.84" style="fill:#495670"/><path d="M443.86,62.66l59.53-21.21,61.13,20.83-9.9,78.77-51.23,28.37-50.44-28Z" style="fill:#e23237"/><path d="M564.52,62.28,503.39,41.45v128l51.23-28.33,9.9-78.81Z" style="fill:#b52e31"/><path d="M503.48,56.39l-37.09,82.54,13.85-.24,7.45-18.62H521l8.15,18.86,13.25.23L503.48,56.39Zm.1,26.44L516.11,109H492.55Z" style="fill:#fff"/><rect x="443.96" y="230.46" width="256.04" height="193.41" style="fill:url(#d)"/><rect x="449.45" y="235.95" width="245.05" height="182.42" style="fill:#fff"/><rect x="458.24" y="244.75" width="227.47" height="164.84" style="fill:#495670"/><path d="M503.4,326.79c0,10.43,10.11,20.2,26.15,25.74-3.26,16.12-.67,29.14,8.11,34.24,9,5.23,22.48,1.67,35.29-9.46,12.42,10.76,25,15,33.78,10,9-5.2,11.83-19.08,8.59-35.73,16.74-5.47,26.12-13.75,26.15-24.31,0-10.19-10.14-19-26-24.53,3.6-17.32.64-30-8.5-35.33-8.8-5.12-21.55-.72-34.22,10.23-13.1-11.71-25.7-15.31-34.86-10.05-8.83,5.08-11.39,18.32-8.22,34.76C514.18,307.67,503.43,316.65,503.4,326.79Z" style="fill:#fff"/><path d="M612.14,308.1c-1.3-.45-2.62-.87-3.94-1.26.22-.89.43-1.79.62-2.69,3-14.49,1.11-26.18-5.55-30-6.38-3.71-16.86.1-27.45,9.26-1,.91-2.07,1.84-3.06,2.8-.67-.64-1.34-1.27-2-1.89-11-9.86-22.13-14-28.81-10.2-6.4,3.67-8.33,14.65-5.68,28.41.26,1.36.56,2.72.89,4.06-1.57.45-3.09.92-4.54,1.42-13,4.48-21.31,11.55-21.33,18.91,0,7.6,8.85,15.25,22.36,19.91,1.09.38,2.2.73,3.31,1.05-.37,1.45-.69,2.91-1,4.37-2.6,13.5-.63,24.24,5.73,27.93,6.57,3.82,17.63-.05,28.42-9.42.85-.74,1.71-1.52,2.57-2.35,1.07,1,2.17,2.06,3.3,3,10.4,9,20.68,12.65,27.06,9,6.59-3.78,8.76-15.3,6-29.32-.21-1.08-.45-2.17-.73-3.28.78-.23,1.54-.47,2.29-.71,14.07-4.61,23.24-12.11,23.26-19.81,0-7.39-8.51-14.56-21.74-19.16Z" style="fill:#53c1de"/><path d="M609,342.09c-.67.22-1.35.44-2.06.64a120.85,120.85,0,0,0-6.16-15.55,122.22,122.22,0,0,0,6-15.29c1.25.36,2.47.75,3.64,1.16,11.34,3.94,18.24,9.74,18.23,14.19,0,4.74-7.51,10.87-19.66,14.85Zm-5.06,10a44.65,44.65,0,0,1,.54,16.18c-.75,3.94-2.22,6.56-4,7.6-3.88,2.23-12.13-.71-21-8.4-1-.89-2-1.83-3.07-2.82a125.48,125.48,0,0,0,10.32-13,124,124,0,0,0,16.61-2.51q.38,1.52.66,3Zm-51,23.25c-3.78,1.32-6.79,1.35-8.6.29-3.86-2.24-5.44-10.86-3.21-22.4.26-1.37.57-2.72.91-4.07a122.62,122.62,0,0,0,16.51,2.44,127.6,127.6,0,0,0,10.49,13c-.76.74-1.55,1.45-2.34,2.15a44.51,44.51,0,0,1-13.76,8.55Zm-17.58-33.48a44.39,44.39,0,0,1-14.28-7.64c-3-2.62-4.56-5.21-4.55-7.31,0-4.46,6.69-10.13,17.8-14,1.4-.48,2.8-.92,4.23-1.32a125.71,125.71,0,0,0,5.92,15.51,129.25,129.25,0,0,0-6.1,15.69C537.34,342.49,536.33,342.18,535.33,341.83Zm6.06-40.34c-2.27-11.79-.71-20.67,3.14-22.88,4.12-2.36,13.18,1.05,22.71,9.57.61.54,1.22,1.12,1.83,1.7a125.85,125.85,0,0,0-10.48,12.9,127.07,127.07,0,0,0-16.37,2.49c-.31-1.25-.59-2.51-.83-3.78Zm52.85,13.23c-1.19-2.08-2.43-4.12-3.71-6.15,3.91.51,7.66,1.18,11.17,2q-1.71,5.37-4,10.55-1.69-3.23-3.51-6.39Zm-21.5-21.08a110.94,110.94,0,0,1,7.18,8.73c-4.82-.24-9.66-.26-14.49-.05,2.39-3.13,4.84-6,7.3-8.68Zm-21.78,21q-1.82,3.12-3.48,6.33c-1.52-3.63-2.81-7.19-3.86-10.63,3.5-.77,7.23-1.4,11.12-1.87C553.43,310.48,552.17,312.53,551,314.62Zm3.77,31.31a110.65,110.65,0,0,1-11.29-1.85c1.09-3.49,2.44-7.12,4-10.81q1.65,3.21,3.45,6.35C552.13,341.76,553.4,343.86,554.73,345.93Zm17.94,14.92a114.28,114.28,0,0,1-7.35-8.85c2.34.1,4.74.15,7.17.16s5,0,7.4-.14A107.27,107.27,0,0,1,572.67,360.85Zm25.09-27.61a109.79,109.79,0,0,1,4.08,10.8A111,111,0,0,1,590.4,346c1.3-2.05,2.56-4.12,3.78-6.23S596.61,335.43,597.76,333.24Zm-8.11,3.85q-2.8,4.83-5.91,9.48c-3.64.24-7.4.37-11.23.35s-7.53-.14-11.1-.38q-3.17-4.65-6-9.53t-5.2-9.89q2.44-5,5.25-9.87h0q2.81-4.83,6-9.45c3.64-.26,7.38-.39,11.16-.38s7.54.17,11.19.46q3.1,4.62,5.88,9.45t5.25,9.85q-2.48,5.06-5.3,9.91Zm11-58.46c4.1,2.38,5.67,11.94,3.05,24.45-.17.82-.36,1.63-.56,2.44a126,126,0,0,0-16.39-2.65,121.43,121.43,0,0,0-10.32-13c.92-.89,1.86-1.75,2.83-2.58,9.07-7.85,17.54-10.94,21.39-8.7Z" style="fill:#fff"/><path d="M572.61,316.11a11,11,0,1,1-11,10.92h0a11,11,0,0,1,11-10.92h0" style="fill:#53c1de"/></svg>